<svg version="1.1" xmlns="http://www.w3.org/2000/svg" xmlns:xlink="http://www.w3.org/1999/xlink" x="0px" y="0px"
	 viewBox="0 0 20 20" style="enable-background:new 0 0 20 20;" xml:space="preserve">
<g id="bell" class="st0">
	<path class="st1" d="M16.8,16.8c0.7,0,1.3-0.4,1.6-1.1c0.3-0.6,0.1-1.4-0.4-1.8v0c-1.1-1-1.9-2.1-1.9-5.8c0-2.8-2.1-5.2-5.1-5.7
		l-0.1,0V1.3c0-0.5-0.4-0.9-0.9-0.9S9.1,0.8,9.1,1.3v1.1L9,2.3C6.1,2.8,4,5.2,4,8c0,3.7-0.8,4.8-1.9,5.8c-0.5,0.5-0.7,1.2-0.4,1.8
		c0.3,0.7,0.9,1.1,1.6,1.1h4.4l0,0.2c0,0.2-0.1,0.3-0.1,0.5c0,1.4,1.1,2.5,2.5,2.5c1.4,0,2.5-1.1,2.5-2.5c0-0.2,0-0.3-0.1-0.5l0-0.2
		l0.2,0H16.8z M10,19.1c-0.9,0-1.7-0.7-1.7-1.7c0-0.2,0-0.3,0.1-0.5l0-0.1h3.1l0,0.1c0.1,0.2,0.1,0.4,0.1,0.5
		C11.7,18.3,10.9,19.1,10,19.1z M3.2,15.8c-0.3,0-0.6-0.2-0.7-0.5c-0.1-0.3,0-0.6,0.2-0.8c1.2-1.1,2.2-2.5,2.2-6.5
		c0-2.7,2.3-4.8,5.1-4.8c2.8,0,5.1,2.2,5.1,4.8c0,4.1,1.1,5.4,2.2,6.5c0.2,0.2,0.3,0.5,0.2,0.8c-0.1,0.3-0.4,0.5-0.7,0.5H3.2z"/>
</g>
</svg>
