<svg version="1.1" xmlns="http://www.w3.org/2000/svg" xmlns:xlink="http://www.w3.org/1999/xlink" x="0px" y="0px"
	 viewBox="0 0 20 20" style="enable-background:new 0 0 20 20;" xml:space="preserve">
<g id="cart" class="st0">
	<g class="st1">
		<path d="M8.2,15.5c-1.2,0-2.1,0.9-2.1,2.1s0.9,2.1,2.1,2.1s2.1-0.9,2.1-2.1S9.4,15.5,8.2,15.5z M8.2,18.8c-0.6,0-1.1-0.5-1.1-1.1
			s0.5-1.1,1.1-1.1s1.1,0.5,1.1,1.1S8.8,18.8,8.2,18.8z"/>
		<path d="M15.8,15.5c-1.2,0-2.1,0.9-2.1,2.1s0.9,2.1,2.1,2.1c1.2,0,2.1-0.9,2.1-2.1S16.9,15.5,15.8,15.5z M15.8,18.8
			c-0.6,0-1.1-0.5-1.1-1.1s0.5-1.1,1.1-1.1s1.1,0.5,1.1,1.1S16.4,18.8,15.8,18.8z"/>
		<path d="M18.5,3L18.5,3c-0.3-0.3-0.7-0.5-1.1-0.5H4.1L4,1.8C3.8,1,3.1,0.3,2.2,0.3H1.2c-0.3,0-0.5,0.2-0.5,0.5s0.2,0.5,0.5,0.5
			h1.1C2.6,1.3,3,1.6,3,2l1.8,10.9c0.1,0.8,0.9,1.5,1.7,1.5h10.8c0.3,0,0.5-0.2,0.5-0.5s-0.2-0.5-0.5-0.5H6.6
			c-0.4,0-0.7-0.3-0.8-0.7L5.5,11l0.1,0l10.8-0.9c0.8-0.1,1.6-0.8,1.7-1.6l0.7-4.4C18.9,3.7,18.8,3.3,18.5,3z M17.8,4l-0.7,4.4
			c-0.1,0.4-0.4,0.7-0.8,0.8l-10.9,1l0-0.1L4.3,3.5h13.2c0.1,0,0.3,0.1,0.3,0.1C17.8,3.7,17.9,3.8,17.8,4L17.8,4L17.8,4z"/>
	</g>
</g>
</svg>
