<svg version="1.1" xmlns="http://www.w3.org/2000/svg" xmlns:xlink="http://www.w3.org/1999/xlink" x="0px" y="0px"
	 viewBox="0 0 20 20" style="enable-background:new 0 0 20 20;" xml:space="preserve">
<g id="Pedidos">
	<path d="M19,13.9h-0.6V9.7c0-0.1,0-0.2-0.1-0.2c0,0,0,0,0,0l-1.7-2.6c0,0-0.6-1-1.6-1.3c-0.6-0.2-1.5-0.2-2-0.2V4.6
		c0-0.9-0.8-1.7-1.7-1.7H2.6c-0.9,0-1.7,0.8-1.7,1.7v8.5c0,0.9,0.8,1.7,1.7,1.7h0.2c0,1.5,1.3,2.7,2.8,2.7s2.7-1.2,2.8-2.7h1.4h2
		c0,1.5,1.3,2.7,2.8,2.7c1.5,0,2.7-1.2,2.8-2.7h0.7H19c0.2,0,0.5-0.2,0.5-0.5S19.2,13.9,19,13.9z M13,6.4c0.5,0,1.3,0,1.8,0.1
		c0.7,0.2,1.1,0.9,1.1,0.9l1.2,1.9H13V6.4z M5.5,16.6c-1,0-1.9-0.8-1.9-1.9c0-1,0.8-1.9,1.9-1.9s1.9,0.8,1.9,1.9
		C7.4,15.7,6.6,16.6,5.5,16.6z M8.2,13.9c-0.4-1.1-1.4-1.9-2.6-1.9s-2.3,0.8-2.6,1.9H2.6c-0.4,0-0.8-0.3-0.8-0.8V4.6
		c0-0.4,0.3-0.8,0.8-0.8h8.7c0.4,0,0.8,0.3,0.8,0.8l0,1.4c0,0,0,0,0,0v7.4c-0.1,0.2-0.2,0.3-0.2,0.5H9.7H8.2z M14.4,16.6
		c-1,0-1.9-0.8-1.9-1.9c0-1,0.8-1.9,1.9-1.9c1,0,1.9,0.8,1.9,1.9C16.3,15.7,15.5,16.6,14.4,16.6z M17.5,13.9h-0.4
		c-0.4-1.1-1.4-1.9-2.6-1.9c-0.5,0-1.1,0.2-1.5,0.4v-2.2h4.5V13.9z"/>
</g>

</svg>
