<svg version="1.1" xmlns="http://www.w3.org/2000/svg" xmlns:xlink="http://www.w3.org/1999/xlink" x="0px" y="0px"
	 viewBox="0 0 20 20" style="enable-background:new 0 0 20 20;" xml:space="preserve">
<g id="Proveedores">
	<g>
		<path d="M18,14.3h-1.5v-2.7c0-0.2-0.2-0.5-0.5-0.5h-2.3V8.9h0.9c0.2,0,0.5-0.2,0.5-0.5V5.2c0-0.2-0.2-0.5-0.5-0.5H8.3
			C8.1,4.8,7.9,5,7.9,5.2V8H7C6.8,8,6.6,8.2,6.6,8.4v2.8H6.2c-0.2,0-0.5,0.2-0.5,0.5v2.7H4.9V4.5c0-0.1,0-0.2-0.1-0.2L2.5,0.5
			C2.4,0.3,2.1,0.2,1.9,0.3C1.7,0.4,1.6,0.7,1.8,0.9L4,4.7v10.1c0,0.2,0.2,0.5,0.5,0.5H18c0.2,0,0.5-0.2,0.5-0.5S18.2,14.3,18,14.3z
			 M8.8,5.7h5.4V8h-0.9H8.8V5.7z M7.5,8.9h0.9h4.5v2.3H7.5V8.9z M6.7,12.1h8.9v2.2H6.7V12.1z"/>
		<g>
			<path d="M7.8,19.8c-1.1,0-2-0.9-2-2s0.9-2,2-2s2,0.9,2,2S8.9,19.8,7.8,19.8z M7.8,16.8c-0.6,0-1.1,0.5-1.1,1.1s0.5,1.1,1.1,1.1
				c0.6,0,1.1-0.5,1.1-1.1S8.4,16.8,7.8,16.8z"/>
		</g>
		<g>
			<path d="M14.7,19.8c-1.1,0-2-0.9-2-2s0.9-2,2-2c1.1,0,2,0.9,2,2S15.7,19.8,14.7,19.8z M14.7,16.8c-0.6,0-1.1,0.5-1.1,1.1
				s0.5,1.1,1.1,1.1s1.1-0.5,1.1-1.1S15.3,16.8,14.7,16.8z"/>
		</g>
	</g>
</g>


</svg>
