<svg version="1.1" xmlns="http://www.w3.org/2000/svg" xmlns:xlink="http://www.w3.org/1999/xlink" x="0px" y="0px"
	 viewBox="0 0 20 20" style="enable-background:new 0 0 20 20;" xml:space="preserve">
<g id="Roles">
	<g>
		<path d="M9.3,11c-2.9,0-5.3-2.4-5.3-5.3s2.4-5.3,5.3-5.3s5.3,2.4,5.3,5.3S12.2,11,9.3,11z M9.3,1.4c-2.4,0-4.3,1.9-4.3,4.3
			S6.9,10,9.3,10s4.3-1.9,4.3-4.3S11.6,1.4,9.3,1.4z"/>
		<g>
			<path d="M18.1,13.8c0-0.2-0.3-0.4-0.5-0.4c-0.2,0-0.3-0.1-0.4-0.2s0-0.3,0.1-0.4c0.2-0.2,0.2-0.4,0.1-0.6
				c-0.2-0.3-0.4-0.5-0.7-0.7c-0.2-0.1-0.5-0.1-0.6,0.1c0,0-0.1,0.1-0.1,0.1c-0.1,0-0.2,0-0.3,0c-0.1,0-0.2-0.1-0.2-0.2
				c0-0.1,0-0.1,0-0.2c0-0.3-0.1-0.5-0.4-0.5c-0.3,0-0.7-0.1-1,0c-0.2,0-0.4,0.2-0.4,0.5c0,0.2-0.1,0.3-0.2,0.4
				c-0.1,0.1-0.3,0-0.4-0.1c-0.2-0.2-0.4-0.2-0.6-0.1c-0.3,0.2-0.5,0.4-0.7,0.7c0,0,0,0,0,0.1c-0.8-0.2-1.6-0.3-2.5-0.3
				c-1.8,0-3.3,0.3-4.6,0.9c-1,0.5-1.9,1.2-2.5,2.1C1,16.4,1,17.9,1,18c0,1,0.7,1.7,1.7,1.7h13c0.9,0,1.7-0.8,1.7-1.7
				c0-0.1,0-0.6-0.2-1.2c0.1-0.1,0.2-0.2,0.3-0.2c0.2-0.2,0.1-0.5-0.1-0.6c0,0-0.1-0.1-0.1-0.1c0-0.1,0-0.2,0-0.3
				c0-0.1,0.1-0.2,0.2-0.2c0.1,0,0.1,0,0.2,0c0.2,0,0.5-0.1,0.5-0.4C18.2,14.5,18.2,14.2,18.1,13.8z M15.7,18.8h-13
				c-0.4,0-0.8-0.4-0.8-0.8c0,0,0-1.3,0.9-2.6C3.4,14.6,4.1,14,5,13.6c1.1-0.5,2.5-0.8,4.2-0.8c1,0,1.9,0.1,2.7,0.3
				c0,0.1-0.1,0.2-0.2,0.2c-0.1,0-0.1,0-0.2,0c-0.2,0-0.5,0.1-0.5,0.4c0,0.3-0.1,0.7,0,1c0,0.2,0.2,0.4,0.5,0.4
				c0.2,0,0.3,0.1,0.4,0.2c0.1,0.1,0,0.3-0.1,0.4c-0.2,0.2-0.2,0.4-0.1,0.6c0.2,0.3,0.4,0.5,0.7,0.7c0.2,0.2,0.5,0.1,0.6-0.1
				c0,0,0.1-0.1,0.1-0.1c0.2-0.1,0.4,0,0.5,0.2c0,0.1,0,0.1,0,0.2c0,0.2,0.1,0.5,0.4,0.5c0.2,0,0.3,0,0.5,0c0.2,0,0.3,0,0.5,0l0.1,0
				c0.2-0.1,0.3-0.3,0.3-0.5c0-0.2,0.1-0.3,0.2-0.4c0.1-0.1,0.3,0,0.4,0.1c0.1,0.1,0.2,0.1,0.3,0.2c0.1,0.4,0.1,0.7,0.1,0.7
				C16.5,18.4,16.1,18.8,15.7,18.8z M17.5,14.6c-0.1,0-0.2,0-0.3,0.1c-0.2,0.1-0.4,0.3-0.5,0.5c-0.1,0.2-0.1,0.5,0,0.7
				c0,0.1,0.1,0.2,0.2,0.3c-0.1,0.2-0.3,0.3-0.4,0.4c-0.3-0.2-0.7-0.3-1-0.2c-0.3,0.1-0.6,0.5-0.6,0.8c-0.2,0-0.4,0-0.6,0
				c0-0.1,0-0.2-0.1-0.3c-0.1-0.2-0.3-0.4-0.5-0.5c-0.2-0.1-0.5-0.1-0.7,0c-0.1,0-0.2,0.1-0.3,0.2c-0.2-0.1-0.3-0.3-0.4-0.4
				c0.2-0.3,0.3-0.7,0.2-1c-0.1-0.3-0.5-0.6-0.8-0.6c0-0.2,0-0.4,0-0.6c0.1,0,0.2,0,0.3-0.1c0.5-0.2,0.7-0.8,0.5-1.2
				c0-0.1-0.1-0.2-0.2-0.3c0.1-0.2,0.3-0.3,0.4-0.4c0.3,0.2,0.7,0.3,1,0.2c0.3-0.1,0.6-0.5,0.6-0.8c0.2,0,0.4,0,0.6,0
				c0,0.1,0,0.2,0.1,0.3c0.1,0.2,0.3,0.4,0.5,0.5c0.2,0.1,0.5,0.1,0.7,0c0.1,0,0.2-0.1,0.3-0.2c0.2,0.1,0.3,0.3,0.4,0.4
				c-0.2,0.3-0.3,0.7-0.2,1c0.1,0.3,0.5,0.6,0.8,0.6C17.6,14.2,17.6,14.4,17.5,14.6z"/>
			<path d="M15.1,13.1c-0.3-0.1-0.7-0.1-1,0c-0.3,0.1-0.6,0.4-0.7,0.7c-0.1,0.3-0.1,0.7,0,1c0.1,0.3,0.4,0.6,0.7,0.7
				c0.2,0.1,0.3,0.1,0.5,0.1c0.2,0,0.3,0,0.5-0.1c0.3-0.1,0.6-0.4,0.7-0.7c0.1-0.3,0.1-0.7,0-1C15.6,13.5,15.4,13.3,15.1,13.1z
				 M15.2,14.6c-0.1,0.2-0.2,0.3-0.4,0.4h0c-0.2,0.1-0.4,0.1-0.5,0c-0.2-0.1-0.3-0.2-0.4-0.4c-0.1-0.2-0.1-0.4,0-0.5
				c0.1-0.2,0.2-0.3,0.4-0.4c0.1,0,0.2-0.1,0.3-0.1c0.1,0,0.2,0,0.3,0.1c0.2,0.1,0.3,0.2,0.4,0.4C15.3,14.2,15.3,14.4,15.2,14.6z"/>
		</g>
	</g>
</g>


</svg>
