<svg version="1.1" xmlns="http://www.w3.org/2000/svg" xmlns:xlink="http://www.w3.org/1999/xlink" x="0px" y="0px"
	 viewBox="0 0 20 20" style="enable-background:new 0 0 20 20;" xml:space="preserve">
<g id="search" class="st0">
	<path class="st1" d="M7.7,0.5c-4,0-7.2,3.2-7.2,7.2s3.2,7.2,7.2,7.2c1.5,0,3-0.5,4.2-1.4l0.5-0.4l6.2,6.2c0.1,0.1,0.2,0.1,0.4,0.1
		h0c0.1,0,0.3-0.1,0.4-0.1c0.1-0.1,0.2-0.2,0.2-0.4c0-0.1-0.1-0.3-0.1-0.4l-6.2-6.2l0.4-0.5c0.9-1.2,1.4-2.7,1.4-4.2
		C14.9,3.8,11.7,0.5,7.7,0.5z M7.7,13.9c-3.4,0-6.2-2.8-6.2-6.2s2.8-6.2,6.2-6.2s6.2,2.8,6.2,6.2S11.1,13.9,7.7,13.9z"/>
</g>
</svg>
