<svg version="1.1" xmlns="http://www.w3.org/2000/svg" xmlns:xlink="http://www.w3.org/1999/xlink" x="0px" y="0px"
	 viewBox="0 0 20 20" style="enable-background:new 0 0 20 20;" xml:space="preserve">
<g id="star" class="st0">
	<path class="st1" d="M15.9,19.1c-0.1,0-0.2,0-0.3-0.1L10,15.9L4.4,19c-0.2,0.1-0.4,0.1-0.6,0s-0.3-0.3-0.2-0.5l1-6.1L0.6,8.2
		C0.4,8.1,0.4,7.9,0.4,7.7s0.2-0.3,0.4-0.4l6.1-1l2.5-5.1C9.6,1.1,9.8,0.9,10,0.9c0.2,0,0.4,0.1,0.5,0.3L13,6.3l6.1,1
		c0.2,0,0.4,0.2,0.4,0.4c0.1,0.2,0,0.4-0.1,0.5l-4.1,4.1l1,6.1c0,0.2-0.1,0.4-0.2,0.5C16.1,19,16,19.1,15.9,19.1z M10,14.8
		c0.1,0,0.2,0,0.3,0.1l4.9,2.7l-0.9-5.3c0-0.2,0-0.3,0.1-0.5l3.5-3.5l-5.4-0.9c-0.2,0-0.3-0.1-0.4-0.3L10,2.7L7.8,7
		C7.7,7.2,7.6,7.3,7.4,7.3L2.1,8.2l3.5,3.5c0.1,0.1,0.2,0.3,0.1,0.5l-0.9,5.3l4.9-2.7C9.8,14.8,9.9,14.8,10,14.8z"/>
</g>
</svg>
