<?xml version="1.0" encoding="utf-8"?>
<!-- Generator: Adobe Illustrator 22.0.0, SVG Export Plug-In . SVG Version: 6.00 Build 0)  -->
<svg version="1.1" xmlns="http://www.w3.org/2000/svg" xmlns:xlink="http://www.w3.org/1999/xlink" x="0px" y="0px"
	 viewBox="0 0 20 20" style="enable-background:new 0 0 20 20;" xml:space="preserve">
<style type="text/css">
	.st0{display:none;}
	.st1{display:inline;}
</style>
<g id="calendar" class="st0">
	<path class="st1" d="M18.5,2H16V1.5C16,1.2,15.8,1,15.5,1S15,1.2,15,1.5V2H5V1.5C5,1.2,4.8,1,4.5,1S4,1.2,4,1.5V2H1.5
		C0.7,2,0,2.7,0,3.5v14C0,18.3,0.7,19,1.5,19h17c0.8,0,1.5-0.7,1.5-1.5v-14C20,2.7,19.3,2,18.5,2z M1.5,3H4v1.5C4,4.8,4.2,5,4.5,5
		S5,4.8,5,4.5V3h10v1.5C15,4.8,15.2,5,15.5,5S16,4.8,16,4.5V3h2.5C18.8,3,19,3.2,19,3.5V6H1V3.5C1,3.2,1.2,3,1.5,3z M18.5,18h-17
		C1.2,18,1,17.8,1,17.5V7h18v10.5C19,17.8,18.8,18,18.5,18z"/>
</g>
<g id="heart" class="st0">
	<path class="st1" d="M10,19c-0.1,0-0.2,0-0.2-0.1c-0.1-0.1-2.3-1.3-4.6-3.3c-1.3-1.2-2.4-2.4-3.2-3.7c-1-1.6-1.5-3.1-1.5-4.7
		C0.5,4.4,2.9,2,5.8,2c1,0,2,0.4,2.9,1c0.5,0.4,1,0.9,1.3,1.4c0.3-0.5,0.8-1,1.3-1.4c0.9-0.7,2-1,2.9-1c2.9,0,5.3,2.4,5.3,5.3
		c0,1.5-0.5,3.1-1.5,4.7c-0.8,1.2-1.8,2.5-3.2,3.7c-2.3,2-4.5,3.3-4.6,3.3C10.2,19,10.1,19,10,19L10,19z M5.8,3
		C3.4,3,1.5,4.9,1.5,7.2c0,3,2.3,5.8,4.3,7.6c1.8,1.6,3.5,2.7,4.2,3.1c0.6-0.4,2.4-1.5,4.2-3.1c2-1.8,4.3-4.5,4.3-7.6
		c0-2.3-1.9-4.3-4.3-4.3c-1.7,0-3.4,1.4-3.8,2.7C10.4,5.9,10.2,6,10,6S9.6,5.9,9.5,5.7C9.1,4.4,7.5,3,5.8,3z"/>
</g>
<g id="user" class="st0">
	<path class="st1" d="M10,11c-2.9,0-5.3-2.4-5.3-5.3S7.1,0.4,10,0.4s5.3,2.4,5.3,5.3S12.9,11,10,11z M10,1.3c-2.4,0-4.3,1.9-4.3,4.3
		S7.6,10,10,10s4.3-1.9,4.3-4.3S12.4,1.3,10,1.3z"/>
	<path class="st1" d="M17.7,19.6H2.3c-0.8,0-1.4-0.6-1.4-1.4c0-0.1,0-1.6,1.2-3.2c0.7-0.9,1.6-1.6,2.8-2.1c1.4-0.6,3.2-0.9,5.2-0.9
		s3.8,0.3,5.2,0.9c1.2,0.5,2.1,1.2,2.8,2.1c1.2,1.6,1.2,3.1,1.2,3.2C19.2,19,18.5,19.6,17.7,19.6z M10,12.9c-3.4,0-5.8,0.9-7.2,2.7
		c-1,1.3-1,2.6-1,2.6c0,0.3,0.2,0.5,0.5,0.5h15.4c0.3,0,0.5-0.2,0.5-0.5c0,0,0-1.3-1-2.6C15.8,13.8,13.4,12.9,10,12.9z"/>
</g>
<g id="cart" class="st0">
	<g class="st1">
		<path d="M8.2,15.5c-1.2,0-2.1,0.9-2.1,2.1s0.9,2.1,2.1,2.1s2.1-0.9,2.1-2.1S9.4,15.5,8.2,15.5z M8.2,18.8c-0.6,0-1.1-0.5-1.1-1.1
			s0.5-1.1,1.1-1.1s1.1,0.5,1.1,1.1S8.8,18.8,8.2,18.8z"/>
		<path d="M15.8,15.5c-1.2,0-2.1,0.9-2.1,2.1s0.9,2.1,2.1,2.1c1.2,0,2.1-0.9,2.1-2.1S16.9,15.5,15.8,15.5z M15.8,18.8
			c-0.6,0-1.1-0.5-1.1-1.1s0.5-1.1,1.1-1.1s1.1,0.5,1.1,1.1S16.4,18.8,15.8,18.8z"/>
		<path d="M18.5,3L18.5,3c-0.3-0.3-0.7-0.5-1.1-0.5H4.1L4,1.8C3.8,1,3.1,0.3,2.2,0.3H1.2c-0.3,0-0.5,0.2-0.5,0.5s0.2,0.5,0.5,0.5
			h1.1C2.6,1.3,3,1.6,3,2l1.8,10.9c0.1,0.8,0.9,1.5,1.7,1.5h10.8c0.3,0,0.5-0.2,0.5-0.5s-0.2-0.5-0.5-0.5H6.6
			c-0.4,0-0.7-0.3-0.8-0.7L5.5,11l0.1,0l10.8-0.9c0.8-0.1,1.6-0.8,1.7-1.6l0.7-4.4C18.9,3.7,18.8,3.3,18.5,3z M17.8,4l-0.7,4.4
			c-0.1,0.4-0.4,0.7-0.8,0.8l-10.9,1l0-0.1L4.3,3.5h13.2c0.1,0,0.3,0.1,0.3,0.1C17.8,3.7,17.9,3.8,17.8,4L17.8,4L17.8,4z"/>
	</g>
</g>
<g id="bell" class="st0">
	<path class="st1" d="M16.8,16.8c0.7,0,1.3-0.4,1.6-1.1c0.3-0.6,0.1-1.4-0.4-1.8v0c-1.1-1-1.9-2.1-1.9-5.8c0-2.8-2.1-5.2-5.1-5.7
		l-0.1,0V1.3c0-0.5-0.4-0.9-0.9-0.9S9.1,0.8,9.1,1.3v1.1L9,2.3C6.1,2.8,4,5.2,4,8c0,3.7-0.8,4.8-1.9,5.8c-0.5,0.5-0.7,1.2-0.4,1.8
		c0.3,0.7,0.9,1.1,1.6,1.1h4.4l0,0.2c0,0.2-0.1,0.3-0.1,0.5c0,1.4,1.1,2.5,2.5,2.5c1.4,0,2.5-1.1,2.5-2.5c0-0.2,0-0.3-0.1-0.5l0-0.2
		l0.2,0H16.8z M10,19.1c-0.9,0-1.7-0.7-1.7-1.7c0-0.2,0-0.3,0.1-0.5l0-0.1h3.1l0,0.1c0.1,0.2,0.1,0.4,0.1,0.5
		C11.7,18.3,10.9,19.1,10,19.1z M3.2,15.8c-0.3,0-0.6-0.2-0.7-0.5c-0.1-0.3,0-0.6,0.2-0.8c1.2-1.1,2.2-2.5,2.2-6.5
		c0-2.7,2.3-4.8,5.1-4.8c2.8,0,5.1,2.2,5.1,4.8c0,4.1,1.1,5.4,2.2,6.5c0.2,0.2,0.3,0.5,0.2,0.8c-0.1,0.3-0.4,0.5-0.7,0.5H3.2z"/>
</g>
<g id="bubble" class="st0">
	<path class="st1" d="M1,19c-0.2,0-0.4-0.1-0.5-0.4s0-0.4,0.2-0.6c1.7-1,2.4-2.5,2.6-3.2c-1.8-1.4-2.9-3.4-2.9-5.4c0-1,0.3-2,0.8-3
		c0.5-0.9,1.2-1.7,2.1-2.4C5.1,2.8,7.5,2,10,2s4.9,0.8,6.7,2.2c0.9,0.7,1.6,1.5,2.1,2.4c0.5,0.9,0.8,1.9,0.8,3s-0.3,2-0.8,3
		c-0.5,0.9-1.2,1.7-2.1,2.4C14.9,16.2,12.5,17,10,17c-1,0-2-0.1-3-0.4c-0.4,0.3-1.2,0.8-2.2,1.3C3.3,18.6,2,19,1,19L1,19z M10,3
		C5.3,3,1.5,5.9,1.5,9.5c0,1.8,1,3.6,2.8,4.8c0.2,0.1,0.3,0.3,0.2,0.5c-0.1,0.4-0.5,1.6-1.6,2.8c1.3-0.5,2.7-1.2,3.7-2
		c0.1-0.1,0.3-0.1,0.4-0.1C8,15.9,9,16,10,16c4.7,0,8.5-2.9,8.5-6.5S14.7,3,10,3z"/>
</g>
<g id="folder" class="st0">
	<g class="st1">
		<path d="M2.5,18c-0.6,0-1.2-0.2-1.6-0.7c-0.4-0.4-0.7-1-0.7-1.6V3.5c0-1.2,1-2.2,2.2-2.2H7c0.5,0,0.9,0.2,1.2,0.5l1.6,1.6l8,0
			c1.2,0,2.1,1,2.1,2.1v10.2c0,1.2-1,2.2-2.2,2.2L2.5,18C2.5,18,2.5,18,2.5,18z M2.4,2.3c-0.6,0-1.2,0.5-1.2,1.2v12.3
			c0,0.3,0.1,0.7,0.4,0.9C1.9,16.9,2.2,17,2.5,17l15.2,0h0c0.6,0,1.2-0.5,1.2-1.2V5.6c0-0.6-0.5-1.1-1.1-1.1H9.9
			c-0.3,0-0.6-0.1-0.8-0.3L7.5,2.5C7.4,2.4,7.2,2.3,7,2.3H2.4z"/>
	</g>
</g>
<g id="chevron-down" class="st0">
	<path class="st1" d="M0.5,5.5c0-0.1,0-0.3,0.1-0.4C0.8,5,1.2,5,1.4,5.1l8.6,8.6l8.6-8.6c0.2-0.2,0.5-0.2,0.7,0s0.2,0.5,0,0.7l-9,9
		c-0.2,0.2-0.5,0.2-0.7,0l-9-9C0.5,5.8,0.5,5.6,0.5,5.5L0.5,5.5z"/>
</g>
<g id="chevron-up" class="st0">
	<path class="st1" d="M19.5,14.5c0,0.1,0,0.3-0.1,0.4c-0.2,0.2-0.5,0.2-0.7,0L10,6.2l-8.6,8.6c-0.2,0.2-0.5,0.2-0.7,0
		c-0.2-0.2-0.2-0.5,0-0.7l9-9c0.2-0.2,0.5-0.2,0.7,0l9,9C19.5,14.2,19.5,14.4,19.5,14.5L19.5,14.5z"/>
</g>
<g id="chevron-left" class="st0">
	<path class="st1" d="M14.5,0.5c0.1,0,0.3,0,0.4,0.1c0.2,0.2,0.2,0.5,0,0.7L6.2,10l8.6,8.6c0.2,0.2,0.2,0.5,0,0.7
		c-0.2,0.2-0.5,0.2-0.7,0l-9-9C5,10.2,5,9.8,5.1,9.6l9-9C14.2,0.5,14.4,0.5,14.5,0.5L14.5,0.5z"/>
</g>
<g id="chevron-right" class="st0">
	<path class="st1" d="M5.5,19.5c-0.1,0-0.3,0-0.4-0.1c-0.2-0.2-0.2-0.5,0-0.7l8.6-8.6L5.1,1.4C5,1.2,5,0.8,5.1,0.6s0.5-0.2,0.7,0
		l9,9c0.2,0.2,0.2,0.5,0,0.7l-9,9C5.8,19.5,5.6,19.5,5.5,19.5L5.5,19.5z"/>
</g>
<g id="menu" class="st0">
	<path class="st1" d="M19.1,4.5H0.9c-0.3,0-0.6-0.3-0.6-0.6s0.3-0.6,0.6-0.6h18.3c0.3,0,0.6,0.3,0.6,0.6S19.5,4.5,19.1,4.5z"/>
	<path class="st1" d="M19.1,10.6H0.9c-0.3,0-0.6-0.3-0.6-0.6s0.3-0.6,0.6-0.6h18.3c0.3,0,0.6,0.3,0.6,0.6S19.5,10.6,19.1,10.6z"/>
	<path class="st1" d="M19.1,16.7H0.9c-0.3,0-0.6-0.3-0.6-0.6c0-0.3,0.3-0.6,0.6-0.6h18.3c0.3,0,0.6,0.3,0.6,0.6
		C19.8,16.4,19.5,16.7,19.1,16.7z"/>
</g>
<g id="cross" class="st0">
	<path class="st1" d="M10.7,9.9l7.4-7.5c0.2-0.2,0.2-0.5,0-0.7c-0.2-0.2-0.5-0.2-0.7,0L10,9.2L2.5,1.7C2.3,1.5,2,1.5,1.8,1.7
		c-0.2,0.2-0.2,0.5,0,0.7l7.4,7.5l-7.4,7.5c-0.2,0.2-0.2,0.5,0,0.7c0.1,0.1,0.2,0.1,0.4,0.1c0.1,0,0.3,0,0.4-0.1l7.4-7.5l7.4,7.5
		c0.1,0.1,0.2,0.1,0.4,0.1s0.3,0,0.4-0.1c0.2-0.2,0.2-0.5,0-0.7L10.7,9.9z"/>
</g>
<g id="trash" class="st0">
	<path class="st1" d="M15.7,2.2h-3.4V1.7c0-0.8-0.7-1.5-1.5-1.5h-2c-0.8,0-1.5,0.7-1.5,1.5v0.5H4c-0.8,0-1.5,0.7-1.5,1.5v1
		c0,0.6,0.4,1.2,1,1.4v12.3c0,0.8,0.7,1.5,1.5,1.5h9.8c0.8,0,1.5-0.7,1.5-1.5V6c0.6-0.2,1-0.7,1-1.4v-1C17.2,2.8,16.5,2.2,15.7,2.2z
		 M8.4,1.7c0-0.3,0.2-0.5,0.5-0.5h2c0.3,0,0.5,0.2,0.5,0.5v0.5H8.4V1.7z M14.8,18.8H4.9c-0.3,0-0.5-0.2-0.5-0.5V6.1h10.8v12.3
		C15.2,18.6,15,18.8,14.8,18.8z M16.2,4.6c0,0.3-0.2,0.5-0.5,0.5H4c-0.3,0-0.5-0.2-0.5-0.5v-1c0-0.3,0.2-0.5,0.5-0.5h11.8
		c0.3,0,0.5,0.2,0.5,0.5V4.6z"/>
	<path class="st1" d="M12.8,7.1c-0.3,0-0.5,0.2-0.5,0.5v9.8c0,0.3,0.2,0.5,0.5,0.5s0.5-0.2,0.5-0.5V7.5C13.3,7.3,13.1,7.1,12.8,7.1z
		"/>
	<path class="st1" d="M9.9,7.1c-0.3,0-0.5,0.2-0.5,0.5v9.8c0,0.3,0.2,0.5,0.5,0.5s0.5-0.2,0.5-0.5V7.5C10.3,7.3,10.1,7.1,9.9,7.1z"
		/>
	<path class="st1" d="M6.9,7.1c-0.3,0-0.5,0.2-0.5,0.5v9.8c0,0.3,0.2,0.5,0.5,0.5s0.5-0.2,0.5-0.5V7.5C7.4,7.3,7.2,7.1,6.9,7.1z"/>
</g>
<g id="star" class="st0">
	<path class="st1" d="M15.9,19.1c-0.1,0-0.2,0-0.3-0.1L10,15.9L4.4,19c-0.2,0.1-0.4,0.1-0.6,0s-0.3-0.3-0.2-0.5l1-6.1L0.6,8.2
		C0.4,8.1,0.4,7.9,0.4,7.7s0.2-0.3,0.4-0.4l6.1-1l2.5-5.1C9.6,1.1,9.8,0.9,10,0.9c0.2,0,0.4,0.1,0.5,0.3L13,6.3l6.1,1
		c0.2,0,0.4,0.2,0.4,0.4c0.1,0.2,0,0.4-0.1,0.5l-4.1,4.1l1,6.1c0,0.2-0.1,0.4-0.2,0.5C16.1,19,16,19.1,15.9,19.1z M10,14.8
		c0.1,0,0.2,0,0.3,0.1l4.9,2.7l-0.9-5.3c0-0.2,0-0.3,0.1-0.5l3.5-3.5l-5.4-0.9c-0.2,0-0.3-0.1-0.4-0.3L10,2.7L7.8,7
		C7.7,7.2,7.6,7.3,7.4,7.3L2.1,8.2l3.5,3.5c0.1,0.1,0.2,0.3,0.1,0.5l-0.9,5.3l4.9-2.7C9.8,14.8,9.9,14.8,10,14.8z"/>
</g>
<g id="cog" class="st0">
	<path class="st1" d="M7.6,19.7c0,0-0.1,0-0.1,0c-0.9-0.2-1.8-0.6-2.6-1.1c-0.2-0.1-0.3-0.4-0.2-0.7C4.9,17.7,5,17.3,5,17
		c0-1.1-0.9-2-2-2c-0.3,0-0.7,0.1-1,0.2c-0.2,0.1-0.5,0-0.7-0.2c-0.5-0.8-0.8-1.7-1.1-2.6c-0.1-0.3,0.1-0.5,0.3-0.6
		C1.5,11.6,2,10.9,2,10S1.5,8.4,0.6,8.1C0.4,8,0.2,7.8,0.3,7.5c0.2-0.9,0.6-1.8,1.1-2.6C1.5,4.7,1.8,4.6,2,4.8C2.3,4.9,2.7,5,3,5
		c1.1,0,2-0.9,2-2c0-0.3-0.1-0.7-0.2-1c-0.1-0.2,0-0.5,0.2-0.7c0.8-0.5,1.7-0.8,2.6-1.1C7.8,0.2,8,0.4,8.1,0.6C8.4,1.5,9.1,2,10,2
		s1.6-0.5,1.9-1.4c0.1-0.2,0.3-0.4,0.6-0.3c0.9,0.2,1.8,0.6,2.6,1.1c0.2,0.1,0.3,0.4,0.2,0.7C15.1,2.3,15,2.7,15,3c0,1.1,0.9,2,2,2
		c0.3,0,0.7-0.1,1-0.2c0.2-0.1,0.5,0,0.7,0.2c0.5,0.8,0.8,1.7,1.1,2.6c0.1,0.3-0.1,0.5-0.3,0.6C18.5,8.4,18,9.1,18,10
		s0.5,1.6,1.4,1.9c0.2,0.1,0.4,0.3,0.3,0.6c-0.2,0.9-0.6,1.8-1.1,2.6c-0.1,0.2-0.4,0.3-0.7,0.2c-0.3-0.2-0.6-0.2-1-0.2
		c-1.1,0-2,0.9-2,2c0,0.3,0.1,0.7,0.2,1c0.1,0.2,0,0.5-0.2,0.7c-0.8,0.5-1.7,0.8-2.6,1.1c-0.3,0.1-0.5-0.1-0.6-0.3
		c-0.3-0.8-1-1.4-1.9-1.4s-1.6,0.5-1.9,1.4C8,19.6,7.8,19.7,7.6,19.7L7.6,19.7z M10,17c1.1,0,2.1,0.6,2.7,1.6c0.5-0.2,1-0.4,1.5-0.6
		c-0.1-0.3-0.2-0.6-0.2-1c0-1.7,1.3-3,3-3c0.3,0,0.7,0.1,1,0.2c0.3-0.5,0.5-1,0.6-1.5c-1-0.5-1.6-1.5-1.6-2.7s0.6-2.1,1.6-2.7
		c-0.2-0.5-0.4-1-0.6-1.5C17.7,5.9,17.3,6,17,6c-1.7,0-3-1.3-3-3c0-0.3,0.1-0.7,0.2-1c-0.5-0.3-1-0.5-1.5-0.6C12.1,2.4,11.1,3,10,3
		S7.9,2.4,7.3,1.4C6.8,1.6,6.3,1.8,5.8,2C5.9,2.3,6,2.7,6,3c0,1.7-1.3,3-3,3C2.7,6,2.3,5.9,2,5.8c-0.3,0.5-0.5,1-0.6,1.5
		C2.4,7.9,3,8.9,3,10s-0.6,2.1-1.6,2.7c0.2,0.5,0.4,1,0.6,1.5C2.3,14.1,2.7,14,3,14c1.7,0,3,1.3,3,3c0,0.3-0.1,0.7-0.2,1
		c0.5,0.3,1,0.5,1.5,0.6C7.9,17.6,8.9,17,10,17z"/>
	<path class="st1" d="M10,13c-1.7,0-3-1.3-3-3s1.3-3,3-3s3,1.3,3,3S11.7,13,10,13z M10,8c-1.1,0-2,0.9-2,2s0.9,2,2,2s2-0.9,2-2
		S11.1,8,10,8z"/>
</g>
<g id="power-off" class="st0">
	<g class="st1">
		<g>
			<path d="M10,10.8c-0.3,0-0.5-0.2-0.5-0.5V1.7c0-0.3,0.2-0.5,0.5-0.5s0.5,0.2,0.5,0.5v8.6C10.5,10.6,10.3,10.8,10,10.8z"/>
		</g>
		<g>
			<path d="M10,18.8c-4.7,0-8.5-3.8-8.5-8.5C1.5,7,3.4,4,6.3,2.6c0.2-0.1,0.5,0,0.7,0.2c0.1,0.2,0,0.5-0.2,0.7
				c-2.6,1.2-4.3,3.9-4.3,6.8c0,4.1,3.4,7.5,7.5,7.5c4.1,0,7.5-3.4,7.5-7.5c0-2.9-1.7-5.6-4.3-6.8C13,3.4,12.9,3.1,13,2.8
				c0.1-0.3,0.4-0.4,0.7-0.2c3,1.4,4.9,4.4,4.9,7.7C18.5,15,14.7,18.8,10,18.8z"/>
		</g>
	</g>
</g>
<g id="home-door" class="st0">
	<path class="st1" d="M19.9,10.5L19.9,10.5l-8.8-9.7c-0.3-0.3-0.6-0.5-1-0.5c-0.4,0-0.8,0.2-1,0.5l-8.8,9.7C0,10.7,0,10.9,0.1,11.1
		c0.1,0.2,0.3,0.3,0.5,0.3H3v6.5c0,0.8,0.7,1.5,1.5,1.5h3.9c0.2,0,0.3-0.2,0.3-0.3v-3.5c0-0.2,0.1-0.3,0.3-0.3h1.8
		c0.2,0,0.3,0.1,0.3,0.3V19c0,0.2,0.2,0.3,0.3,0.3h3.9c0.8,0,1.5-0.7,1.5-1.5v-6.5h2.5c0.1,0,0.3-0.1,0.4-0.1c0,0,0,0,0,0
		C20,11,20.1,10.7,19.9,10.5z M16,10.7v7.1c0,0.3-0.2,0.5-0.5,0.5h-3.4v-2.9c0-0.7-0.5-1.2-1.2-1.2H9.1c-0.7,0-1.2,0.5-1.2,1.2v2.9
		H4.5c-0.3,0-0.5-0.2-0.5-0.5v-7.1c0-0.2-0.2-0.4-0.4-0.4h-2l8.1-8.9C9.8,1.4,9.9,1.3,10,1.3s0.2,0,0.3,0.1l8.1,8.9l0,0l-2,0
		C16.2,10.4,16,10.5,16,10.7z"/>
</g>
<g id="home_1_" class="st0">
	<path class="st1" d="M19.9,10.5L19.9,10.5l-8.8-9.7c-0.3-0.3-0.6-0.5-1-0.5c-0.4,0-0.8,0.2-1,0.5l-8.8,9.7C0,10.7,0,10.9,0.1,11.1
		c0.1,0.2,0.3,0.3,0.5,0.3H3v6.5c0,0.8,0.7,1.5,1.5,1.5h11c0.8,0,1.5-0.7,1.5-1.5v-6.5h2.5c0.1,0,0.3-0.1,0.4-0.1c0,0,0,0,0,0
		C20,11,20.1,10.7,19.9,10.5z M16,10.7v7.1c0,0.3-0.2,0.5-0.5,0.5h-11c-0.3,0-0.5-0.2-0.5-0.5v-7.1c0-0.2-0.2-0.4-0.4-0.4h-2
		l8.1-8.9C9.8,1.4,9.9,1.3,10,1.3s0.2,0,0.3,0.1l8.1,8.9l0,0l-2,0C16.2,10.4,16,10.5,16,10.7z"/>
</g>
<g id="search" class="st0">
	<path class="st1" d="M7.7,0.5c-4,0-7.2,3.2-7.2,7.2s3.2,7.2,7.2,7.2c1.5,0,3-0.5,4.2-1.4l0.5-0.4l6.2,6.2c0.1,0.1,0.2,0.1,0.4,0.1
		h0c0.1,0,0.3-0.1,0.4-0.1c0.1-0.1,0.2-0.2,0.2-0.4c0-0.1-0.1-0.3-0.1-0.4l-6.2-6.2l0.4-0.5c0.9-1.2,1.4-2.7,1.4-4.2
		C14.9,3.8,11.7,0.5,7.7,0.5z M7.7,13.9c-3.4,0-6.2-2.8-6.2-6.2s2.8-6.2,6.2-6.2s6.2,2.8,6.2,6.2S11.1,13.9,7.7,13.9z"/>
</g>
<g id="eyes" class="st0">
	<g class="st1">
		<g>
			<path d="M10,17.4c-2.4,0-4.6-0.9-6.5-2.8c-1.6-1.5-2.6-3.1-3-4c-0.2-0.4-0.2-0.8,0-1.2c0.4-0.8,1.3-2.4,3-4
				c2-1.8,4.2-2.8,6.5-2.8s4.6,0.9,6.5,2.8c1.5,1.4,2.4,2.9,3,4c0.2,0.4,0.2,0.8,0,1.2c-0.6,1.1-1.5,2.6-3,3.9
				C14.6,16.4,12.4,17.4,10,17.4z M10,3.7c-2.1,0-4.1,0.8-5.9,2.5C3,7.2,2,8.6,1.4,9.9c0,0.1,0,0.2,0,0.3c0.7,1.3,1.7,2.7,2.8,3.7
				c1.8,1.7,3.8,2.5,5.9,2.5s4.1-0.8,5.9-2.5c1.3-1.3,2.2-2.7,2.8-3.7c0.1-0.1,0.1-0.2,0-0.3c-0.5-1-1.4-2.4-2.8-3.7
				C14.1,4.5,12.1,3.7,10,3.7z"/>
		</g>
		<g>
			<path d="M10,14.8c-2.6,0-4.8-2.1-4.8-4.8S7.4,5.3,10,5.3s4.8,2.1,4.8,4.8S12.6,14.8,10,14.8z M10,6.3C7.9,6.3,6.2,8,6.2,10
				s1.7,3.8,3.8,3.8s3.8-1.7,3.8-3.8S12.1,6.3,10,6.3z"/>
		</g>
	</g>
</g>
<g id="eyes-slash" class="st0">
	<g class="st1">
		<g>
			<path d="M13.7,15.4c-1.2,0.6-2.4,1-3.7,1c-2.1,0-4.1-0.8-5.9-2.5c-1.1-1-2.1-2.4-2.8-3.7c0-0.1,0-0.2,0-0.3C2,8.6,3,7.2,4.1,6.2
				C4.2,6.1,4.3,6.1,4.4,6L3.6,5.3C3.6,5.4,3.5,5.4,3.5,5.5c-1.7,1.5-2.6,3.1-3,4c-0.2,0.4-0.2,0.8,0,1.2c0.4,0.8,1.4,2.5,3,4
				c2,1.8,4.2,2.8,6.5,2.8c1.6,0,3.1-0.4,4.5-1.2L13.7,15.4z"/>
			<path d="M19.5,9.4c-0.5-1-1.5-2.6-3-4c-2-1.8-4.2-2.8-6.5-2.8C8.4,2.7,6.8,3.2,5.4,4l0.7,0.7C7.3,4.1,8.6,3.7,10,3.7
				c2.1,0,4.1,0.8,5.9,2.5c1.4,1.3,2.3,2.7,2.8,3.7c0,0.1,0,0.2,0,0.3c-0.5,1-1.4,2.4-2.8,3.7c-0.1,0.1-0.2,0.2-0.4,0.3l0.7,0.7
				c0.1-0.1,0.2-0.2,0.3-0.3c1.4-1.3,2.4-2.9,3-3.9C19.7,10.3,19.7,9.8,19.5,9.4z"/>
		</g>
		<g>
			<path d="M8.1,6.8C8.7,6.5,9.3,6.3,10,6.3c2.1,0,3.8,1.7,3.8,3.8c0,0.7-0.2,1.3-0.5,1.9l0.7,0.7c0.5-0.8,0.8-1.7,0.8-2.6
				c0-2.6-2.1-4.8-4.8-4.8c-1,0-1.9,0.3-2.6,0.8L8.1,6.8z"/>
			<path d="M11.7,13.4c-0.5,0.3-1.1,0.4-1.7,0.4c-2.1,0-3.8-1.7-3.8-3.8c0-0.6,0.2-1.2,0.4-1.7L5.9,7.6C5.5,8.3,5.2,9.1,5.2,10
				c0,2.6,2.1,4.8,4.8,4.8c0.9,0,1.7-0.3,2.4-0.7L11.7,13.4z"/>
		</g>
		<g>
			<path d="M18.7,18.7c-0.1,0-0.3-0.1-0.4-0.2L1.7,1.9c-0.2-0.2-0.2-0.6,0-0.8c0.2-0.2,0.6-0.2,0.8,0l16.7,16.7
				c0.2,0.2,0.2,0.6,0,0.8C19,18.7,18.9,18.7,18.7,18.7z"/>
		</g>
	</g>
</g>
<g id="plus" class="st0">
	<path class="st1" d="M19.1,9.4h-8.5V0.9c0-0.3-0.3-0.6-0.6-0.6S9.4,0.5,9.4,0.9v8.5H0.9c-0.3,0-0.6,0.3-0.6,0.6s0.3,0.6,0.6,0.6
		h8.5v8.5c0,0.3,0.3,0.6,0.6,0.6s0.6-0.3,0.6-0.6v-8.5h8.5c0.3,0,0.6-0.3,0.6-0.6S19.5,9.4,19.1,9.4z"/>
</g>
<g id="minus" class="st0">
	<path class="st1" d="M19.1,10.6H0.9c-0.3,0-0.6-0.3-0.6-0.6s0.3-0.6,0.6-0.6h18.3c0.3,0,0.6,0.3,0.6,0.6S19.5,10.6,19.1,10.6z"/>
</g>
</svg>
