<svg version="1.1" xmlns="http://www.w3.org/2000/svg" xmlns:xlink="http://www.w3.org/1999/xlink" x="0px" y="0px"
	 viewBox="0 0 20 20" style="enable-background:new 0 0 20 20;" xml:space="preserve">
<g id="bubble" class="st0">
	<path class="st1" d="M1,19c-0.2,0-0.4-0.1-0.5-0.4s0-0.4,0.2-0.6c1.7-1,2.4-2.5,2.6-3.2c-1.8-1.4-2.9-3.4-2.9-5.4c0-1,0.3-2,0.8-3
		c0.5-0.9,1.2-1.7,2.1-2.4C5.1,2.8,7.5,2,10,2s4.9,0.8,6.7,2.2c0.9,0.7,1.6,1.5,2.1,2.4c0.5,0.9,0.8,1.9,0.8,3s-0.3,2-0.8,3
		c-0.5,0.9-1.2,1.7-2.1,2.4C14.9,16.2,12.5,17,10,17c-1,0-2-0.1-3-0.4c-0.4,0.3-1.2,0.8-2.2,1.3C3.3,18.6,2,19,1,19L1,19z M10,3
		C5.3,3,1.5,5.9,1.5,9.5c0,1.8,1,3.6,2.8,4.8c0.2,0.1,0.3,0.3,0.2,0.5c-0.1,0.4-0.5,1.6-1.6,2.8c1.3-0.5,2.7-1.2,3.7-2
		c0.1-0.1,0.3-0.1,0.4-0.1C8,15.9,9,16,10,16c4.7,0,8.5-2.9,8.5-6.5S14.7,3,10,3z"/>
</g>
</svg>
