<svg version="1.1" xmlns="http://www.w3.org/2000/svg" xmlns:xlink="http://www.w3.org/1999/xlink" x="0px" y="0px"
	 viewBox="0 0 20 20" style="enable-background:new 0 0 20 20;" xml:space="preserve">
<g id="calendar" class="st0">
	<path class="st1" d="M18.5,2H16V1.5C16,1.2,15.8,1,15.5,1S15,1.2,15,1.5V2H5V1.5C5,1.2,4.8,1,4.5,1S4,1.2,4,1.5V2H1.5
		C0.7,2,0,2.7,0,3.5v14C0,18.3,0.7,19,1.5,19h17c0.8,0,1.5-0.7,1.5-1.5v-14C20,2.7,19.3,2,18.5,2z M1.5,3H4v1.5C4,4.8,4.2,5,4.5,5
		S5,4.8,5,4.5V3h10v1.5C15,4.8,15.2,5,15.5,5S16,4.8,16,4.5V3h2.5C18.8,3,19,3.2,19,3.5V6H1V3.5C1,3.2,1.2,3,1.5,3z M18.5,18h-17
		C1.2,18,1,17.8,1,17.5V7h18v10.5C19,17.8,18.8,18,18.5,18z"/>
</g>
</svg>
