<svg version="1.1" xmlns="http://www.w3.org/2000/svg" xmlns:xlink="http://www.w3.org/1999/xlink" x="0px" y="0px"
	 viewBox="0 0 20 20" style="enable-background:new 0 0 20 20;" xml:space="preserve">
<g id="eyes" class="st0">
	<g class="st1">
		<g>
			<path d="M10,17.4c-2.4,0-4.6-0.9-6.5-2.8c-1.6-1.5-2.6-3.1-3-4c-0.2-0.4-0.2-0.8,0-1.2c0.4-0.8,1.3-2.4,3-4
				c2-1.8,4.2-2.8,6.5-2.8s4.6,0.9,6.5,2.8c1.5,1.4,2.4,2.9,3,4c0.2,0.4,0.2,0.8,0,1.2c-0.6,1.1-1.5,2.6-3,3.9
				C14.6,16.4,12.4,17.4,10,17.4z M10,3.7c-2.1,0-4.1,0.8-5.9,2.5C3,7.2,2,8.6,1.4,9.9c0,0.1,0,0.2,0,0.3c0.7,1.3,1.7,2.7,2.8,3.7
				c1.8,1.7,3.8,2.5,5.9,2.5s4.1-0.8,5.9-2.5c1.3-1.3,2.2-2.7,2.8-3.7c0.1-0.1,0.1-0.2,0-0.3c-0.5-1-1.4-2.4-2.8-3.7
				C14.1,4.5,12.1,3.7,10,3.7z"/>
		</g>
		<g>
			<path d="M10,14.8c-2.6,0-4.8-2.1-4.8-4.8S7.4,5.3,10,5.3s4.8,2.1,4.8,4.8S12.6,14.8,10,14.8z M10,6.3C7.9,6.3,6.2,8,6.2,10
				s1.7,3.8,3.8,3.8s3.8-1.7,3.8-3.8S12.1,6.3,10,6.3z"/>
		</g>
	</g>
</g>
</svg>
