<svg version="1.1" xmlns="http://www.w3.org/2000/svg" xmlns:xlink="http://www.w3.org/1999/xlink" x="0px" y="0px"
	 viewBox="0 0 20 20" style="enable-background:new 0 0 20 20;" xml:space="preserve">
<g id="eyes-slash" class="st0">
	<g class="st1">
		<g>
			<path d="M13.7,15.4c-1.2,0.6-2.4,1-3.7,1c-2.1,0-4.1-0.8-5.9-2.5c-1.1-1-2.1-2.4-2.8-3.7c0-0.1,0-0.2,0-0.3C2,8.6,3,7.2,4.1,6.2
				C4.2,6.1,4.3,6.1,4.4,6L3.6,5.3C3.6,5.4,3.5,5.4,3.5,5.5c-1.7,1.5-2.6,3.1-3,4c-0.2,0.4-0.2,0.8,0,1.2c0.4,0.8,1.4,2.5,3,4
				c2,1.8,4.2,2.8,6.5,2.8c1.6,0,3.1-0.4,4.5-1.2L13.7,15.4z"/>
			<path d="M19.5,9.4c-0.5-1-1.5-2.6-3-4c-2-1.8-4.2-2.8-6.5-2.8C8.4,2.7,6.8,3.2,5.4,4l0.7,0.7C7.3,4.1,8.6,3.7,10,3.7
				c2.1,0,4.1,0.8,5.9,2.5c1.4,1.3,2.3,2.7,2.8,3.7c0,0.1,0,0.2,0,0.3c-0.5,1-1.4,2.4-2.8,3.7c-0.1,0.1-0.2,0.2-0.4,0.3l0.7,0.7
				c0.1-0.1,0.2-0.2,0.3-0.3c1.4-1.3,2.4-2.9,3-3.9C19.7,10.3,19.7,9.8,19.5,9.4z"/>
		</g>
		<g>
			<path d="M8.1,6.8C8.7,6.5,9.3,6.3,10,6.3c2.1,0,3.8,1.7,3.8,3.8c0,0.7-0.2,1.3-0.5,1.9l0.7,0.7c0.5-0.8,0.8-1.7,0.8-2.6
				c0-2.6-2.1-4.8-4.8-4.8c-1,0-1.9,0.3-2.6,0.8L8.1,6.8z"/>
			<path d="M11.7,13.4c-0.5,0.3-1.1,0.4-1.7,0.4c-2.1,0-3.8-1.7-3.8-3.8c0-0.6,0.2-1.2,0.4-1.7L5.9,7.6C5.5,8.3,5.2,9.1,5.2,10
				c0,2.6,2.1,4.8,4.8,4.8c0.9,0,1.7-0.3,2.4-0.7L11.7,13.4z"/>
		</g>
		<g>
			<path d="M18.7,18.7c-0.1,0-0.3-0.1-0.4-0.2L1.7,1.9c-0.2-0.2-0.2-0.6,0-0.8c0.2-0.2,0.6-0.2,0.8,0l16.7,16.7
				c0.2,0.2,0.2,0.6,0,0.8C19,18.7,18.9,18.7,18.7,18.7z"/>
		</g>
	</g>
</g>
</svg>
