<svg version="1.1" xmlns="http://www.w3.org/2000/svg" xmlns:xlink="http://www.w3.org/1999/xlink" x="0px" y="0px"
	 viewBox="0 0 20 20" style="enable-background:new 0 0 20 20;" xml:space="preserve">
<g id="home-door" class="st0">
	<path class="st1" d="M19.9,10.5L19.9,10.5l-8.8-9.7c-0.3-0.3-0.6-0.5-1-0.5c-0.4,0-0.8,0.2-1,0.5l-8.8,9.7C0,10.7,0,10.9,0.1,11.1
		c0.1,0.2,0.3,0.3,0.5,0.3H3v6.5c0,0.8,0.7,1.5,1.5,1.5h3.9c0.2,0,0.3-0.2,0.3-0.3v-3.5c0-0.2,0.1-0.3,0.3-0.3h1.8
		c0.2,0,0.3,0.1,0.3,0.3V19c0,0.2,0.2,0.3,0.3,0.3h3.9c0.8,0,1.5-0.7,1.5-1.5v-6.5h2.5c0.1,0,0.3-0.1,0.4-0.1c0,0,0,0,0,0
		C20,11,20.1,10.7,19.9,10.5z M16,10.7v7.1c0,0.3-0.2,0.5-0.5,0.5h-3.4v-2.9c0-0.7-0.5-1.2-1.2-1.2H9.1c-0.7,0-1.2,0.5-1.2,1.2v2.9
		H4.5c-0.3,0-0.5-0.2-0.5-0.5v-7.1c0-0.2-0.2-0.4-0.4-0.4h-2l8.1-8.9C9.8,1.4,9.9,1.3,10,1.3s0.2,0,0.3,0.1l8.1,8.9l0,0l-2,0
		C16.2,10.4,16,10.5,16,10.7z"/>
</g>
</svg>
