<svg version="1.1" xmlns="http://www.w3.org/2000/svg" xmlns:xlink="http://www.w3.org/1999/xlink" x="0px" y="0px"
	 viewBox="0 0 20 20" style="enable-background:new 0 0 20 20;" xml:space="preserve">
<g id="power-off" class="st0">
	<g class="st1">
		<g>
			<path d="M10,10.8c-0.3,0-0.5-0.2-0.5-0.5V1.7c0-0.3,0.2-0.5,0.5-0.5s0.5,0.2,0.5,0.5v8.6C10.5,10.6,10.3,10.8,10,10.8z"/>
		</g>
		<g>
			<path d="M10,18.8c-4.7,0-8.5-3.8-8.5-8.5C1.5,7,3.4,4,6.3,2.6c0.2-0.1,0.5,0,0.7,0.2c0.1,0.2,0,0.5-0.2,0.7
				c-2.6,1.2-4.3,3.9-4.3,6.8c0,4.1,3.4,7.5,7.5,7.5c4.1,0,7.5-3.4,7.5-7.5c0-2.9-1.7-5.6-4.3-6.8C13,3.4,12.9,3.1,13,2.8
				c0.1-0.3,0.4-0.4,0.7-0.2c3,1.4,4.9,4.4,4.9,7.7C18.5,15,14.7,18.8,10,18.8z"/>
		</g>
	</g>
</g>
</svg>
