<svg version="1.1" xmlns="http://www.w3.org/2000/svg" xmlns:xlink="http://www.w3.org/1999/xlink" x="0px" y="0px"
	 viewBox="0 0 20 20" style="enable-background:new 0 0 20 20;" xml:space="preserve">
<g id="trash" class="st0">
	<path class="st1" d="M15.7,2.2h-3.4V1.7c0-0.8-0.7-1.5-1.5-1.5h-2c-0.8,0-1.5,0.7-1.5,1.5v0.5H4c-0.8,0-1.5,0.7-1.5,1.5v1
		c0,0.6,0.4,1.2,1,1.4v12.3c0,0.8,0.7,1.5,1.5,1.5h9.8c0.8,0,1.5-0.7,1.5-1.5V6c0.6-0.2,1-0.7,1-1.4v-1C17.2,2.8,16.5,2.2,15.7,2.2z
		 M8.4,1.7c0-0.3,0.2-0.5,0.5-0.5h2c0.3,0,0.5,0.2,0.5,0.5v0.5H8.4V1.7z M14.8,18.8H4.9c-0.3,0-0.5-0.2-0.5-0.5V6.1h10.8v12.3
		C15.2,18.6,15,18.8,14.8,18.8z M16.2,4.6c0,0.3-0.2,0.5-0.5,0.5H4c-0.3,0-0.5-0.2-0.5-0.5v-1c0-0.3,0.2-0.5,0.5-0.5h11.8
		c0.3,0,0.5,0.2,0.5,0.5V4.6z"/>
	<path class="st1" d="M12.8,7.1c-0.3,0-0.5,0.2-0.5,0.5v9.8c0,0.3,0.2,0.5,0.5,0.5s0.5-0.2,0.5-0.5V7.5C13.3,7.3,13.1,7.1,12.8,7.1z
		"/>
	<path class="st1" d="M9.9,7.1c-0.3,0-0.5,0.2-0.5,0.5v9.8c0,0.3,0.2,0.5,0.5,0.5s0.5-0.2,0.5-0.5V7.5C10.3,7.3,10.1,7.1,9.9,7.1z"
		/>
	<path class="st1" d="M6.9,7.1c-0.3,0-0.5,0.2-0.5,0.5v9.8c0,0.3,0.2,0.5,0.5,0.5s0.5-0.2,0.5-0.5V7.5C7.4,7.3,7.2,7.1,6.9,7.1z"/>
</g>
</svg>
