<svg version="1.1" xmlns="http://www.w3.org/2000/svg" xmlns:xlink="http://www.w3.org/1999/xlink" x="0px" y="0px"
	 viewBox="0 0 20 20" style="enable-background:new 0 0 20 20;" xml:space="preserve">
<g id="Usuarios">
	<g>
		<path d="M19,15.1c-0.5-0.8-1.2-1.4-2.1-1.8c-1-0.5-2.3-0.8-3.8-0.8c-0.4,0-0.9,0-1.3,0.1c-0.4-0.4-0.9-0.8-1.4-1.1
			c-1-0.5-2.3-0.8-3.8-0.8C5.3,10.7,4,11,3,11.5c-0.9,0.4-1.6,1.1-2.1,1.8C0.1,14.6,0,15.9,0,16.1c0,0.9,0.6,1.6,1.4,1.6h5
			c0,0.1,0,0.2,0,0.2c0,0.9,0.6,1.6,1.4,1.6h10.5c0.8,0,1.4-0.7,1.4-1.6C19.9,17.8,19.9,16.5,19,15.1z M6.7,16.8H1.5
			c-0.3,0-0.5-0.3-0.5-0.7c0,0,0-1.2,0.7-2.3c0.4-0.7,1-1.2,1.7-1.5c0.9-0.5,2-0.7,3.4-0.7s2.5,0.2,3.4,0.7c0.3,0.1,0.5,0.3,0.8,0.5
			c-0.5,0.1-1,0.3-1.4,0.5c-0.9,0.4-1.6,1.1-2.1,1.8C7,15.7,6.8,16.3,6.7,16.8z M18.5,18.6H7.9c-0.3,0-0.5-0.3-0.5-0.7
			c0,0,0-1.2,0.7-2.3c0.4-0.7,1-1.2,1.7-1.5c0.9-0.5,2-0.7,3.4-0.7s2.5,0.2,3.4,0.7c0.7,0.4,1.3,0.9,1.7,1.5
			c0.7,1.1,0.7,2.3,0.7,2.3C19,18.3,18.8,18.6,18.5,18.6z"/>
		<path d="M6.8,10c0.9,0,1.7-0.3,2.4-0.7c0.8,1.5,2.3,2.5,4.1,2.5c2.6,0,4.7-2.1,4.7-4.7s-2.1-4.7-4.7-4.7c-0.9,0-1.7,0.3-2.3,0.7
			c-0.8-1.5-2.3-2.5-4.1-2.5c-2.6,0-4.7,2.1-4.7,4.7S4.2,10,6.8,10z M17,7.1c0,2.1-1.7,3.8-3.8,3.8c-2.1,0-3.8-1.7-3.8-3.8
			c0-2.1,1.7-3.8,3.8-3.8C15.3,3.4,17,5,17,7.1z M6.8,1.5c1.5,0,2.7,0.9,3.4,2.1c-1,0.9-1.6,2.1-1.6,3.5c0,0.5,0.1,0.9,0.2,1.3
			c-0.6,0.4-1.3,0.6-2,0.6C4.7,9.1,3,7.4,3,5.3C3,3.2,4.7,1.5,6.8,1.5z"/>
	</g>
</g>



</svg>
