<svg version="1.1" xmlns="http://www.w3.org/2000/svg" xmlns:xlink="http://www.w3.org/1999/xlink" x="0px" y="0px"
	 viewBox="0 0 20 20" style="enable-background:new 0 0 20 20;" xml:space="preserve">
<g id="ico-discord" class="st0">
	<g class="st1">
		<path class="st2" d="M12.2,3.7c0.1-0.3,0.3-0.7,0.5-1c0-0.1,0.1-0.1,0.2-0.1c1.3,0.3,2.6,0.7,3.8,1.1c0.1,0,0.2,0.1,0.2,0.2
			c2,3,3.3,6.5,2.9,10.8c0,0.2,0,0.2-0.2,0.3c-1.5,1-3,1.9-4.7,2.3c-0.2,0.1-0.2,0-0.3-0.1c-0.3-0.5-0.6-1-0.9-1.5
			c0.6-0.2,1.2-0.5,1.6-0.8l-0.4-0.3c-1.1,0.7-2.9,1.1-4.9,1.1c-2,0-3.9-0.4-4.9-1.1L4.7,15c0.5,0.3,1.1,0.6,1.6,0.8
			c-0.3,0.5-0.6,1-0.9,1.5c-0.1,0.1-0.1,0.1-0.3,0.1c-1.7-0.5-3.2-1.3-4.7-2.3c-0.1-0.1-0.1-0.1-0.2-0.3C-0.1,10.4,1.2,7,3.1,4
			c0-0.1,0.1-0.1,0.2-0.2c1.3-0.5,2.5-0.9,3.8-1.1c0.1,0,0.1,0,0.2,0.1c0.2,0.3,0.3,0.7,0.5,1C8.5,3.6,9.2,3.6,10,3.6
			C10.8,3.6,11.6,3.6,12.2,3.7L12.2,3.7z M6.7,8.9c-1,0-1.7,0.9-1.7,1.9c0,1.1,0.8,1.9,1.7,1.9c1,0,1.7-0.9,1.7-1.9
			C8.5,9.7,7.7,8.9,6.7,8.9L6.7,8.9z M13.3,8.9c-1,0-1.7,0.9-1.7,1.9c0,1.1,0.8,1.9,1.7,1.9c1,0,1.7-0.9,1.7-1.9
			C15,9.7,14.3,8.9,13.3,8.9z"/>
	</g>
</g>
</svg>
