
<svg version="1.1" xmlns="http://www.w3.org/2000/svg" xmlns:xlink="http://www.w3.org/1999/xlink" x="0px" y="0px"
	 viewBox="0 0 20 20" style="enable-background:new 0 0 20 20;" xml:space="preserve">
<g id="ico-whatsapp-cicle" class="st0">
	<g class="st1">
		<path d="M10,0.5c-5.3,0-9.5,4.3-9.5,9.5c0,5.3,4.3,9.5,9.5,9.5c5.3,0,9.5-4.3,9.5-9.5C19.5,4.7,15.3,0.5,10,0.5z M10.4,15.2
			c-0.9,0-1.8-0.2-2.6-0.7l-3,0.8l0.8-3C5.2,11.6,5,10.7,5,9.8c0-3,2.5-5.5,5.5-5.5c3,0,5.5,2.5,5.5,5.5
			C15.9,12.8,13.4,15.2,10.4,15.2z"/>
		<path d="M10.4,5.4C8,5.4,6,7.3,6,9.8c0,0.8,0.2,1.6,0.6,2.3l0.1,0.2l-0.4,1.7L8,13.5l0.2,0.1c0.7,0.4,1.5,0.6,2.3,0.6
			c2.4,0,4.4-2,4.4-4.4S12.9,5.4,10.4,5.4z M13,11.5c-0.2,0.4-0.6,0.7-1,0.7c-0.4,0.1-0.7-0.1-1.1-0.2c-0.3-0.1-0.6-0.3-0.9-0.4
			c-0.6-0.4-1.1-0.8-1.5-1.4C8.4,10,8.3,9.8,8.2,9.7C8,9.4,7.9,9.2,7.8,8.9c0-0.1,0-0.2,0-0.3c0-0.4,0.2-0.8,0.5-1.1
			c0.2-0.2,0.5-0.2,0.7-0.1C9.2,7.5,9.3,7.8,9.4,8c0.1,0.2,0.2,0.4,0.1,0.6c0,0.2-0.2,0.4-0.3,0.5c-0.1,0.1-0.1,0.2,0,0.3
			c0.4,0.7,1,1.2,1.8,1.5c0.1,0,0.2,0,0.3-0.1c0.1-0.2,0.3-0.5,0.5-0.6c0.3-0.1,0.6,0,0.8,0.2c0.2,0.1,0.6,0.3,0.6,0.5
			C13.1,11.2,13.1,11.3,13,11.5z"/>
	</g>
</g>
</svg>
