<svg version="1.1" xmlns="http://www.w3.org/2000/svg" xmlns:xlink="http://www.w3.org/1999/xlink" x="0px" y="0px"
	 viewBox="0 0 20 20" style="enable-background:new 0 0 20 20;" xml:space="preserve">
<g id="ico-whatsapp" class="st0">
	<g id="XMLID_69_" class="st1">
		<path id="XMLID_71_" d="M0.4,19.7l1.4-5.2c-0.8-1.4-1.2-3-1.2-4.6c0-5.3,4.3-9.5,9.5-9.5c5.3,0,9.5,4.3,9.5,9.5
			c0,5.3-4.3,9.5-9.5,9.5c-1.6,0-3.1-0.4-4.5-1.2L0.4,19.7z M5.8,16.4l0.3,0.2c1.2,0.7,2.6,1.1,3.9,1.1c4.3,0,7.7-3.5,7.7-7.7
			c0-4.3-3.5-7.7-7.7-7.7c-4.3,0-7.7,3.5-7.7,7.7c0,1.4,0.4,2.8,1.1,4l0.2,0.3l-0.8,2.9L5.8,16.4z"/>
		<path id="XMLID_70_" class="st2" d="M13.7,11.2c-0.4-0.2-0.9-0.5-1.4-0.3c-0.4,0.1-0.6,0.7-0.8,1c-0.1,0.1-0.3,0.2-0.4,0.1
			C9.7,11.5,8.7,10.6,8,9.4C7.8,9.2,7.9,9,8,8.9c0.2-0.3,0.5-0.6,0.6-0.9c0.1-0.4-0.1-0.8-0.3-1.1c-0.2-0.4-0.4-1-0.8-1.2
			C7.2,5.5,6.7,5.6,6.3,5.8C5.8,6.3,5.5,7,5.5,7.7c0,0.2,0,0.4,0.1,0.6c0.1,0.5,0.3,0.9,0.6,1.3c0.2,0.3,0.4,0.6,0.6,0.9
			c0.7,1,1.6,1.8,2.6,2.4c0.5,0.3,1.1,0.6,1.6,0.8c0.6,0.2,1.2,0.4,1.9,0.3c0.7-0.1,1.4-0.6,1.7-1.3c0.1-0.2,0.1-0.4,0.1-0.7
			C14.6,11.7,14,11.5,13.7,11.2z"/>
	</g>
</g>
</svg>
