<svg version="1.1" xmlns="http://www.w3.org/2000/svg" xmlns:xlink="http://www.w3.org/1999/xlink" x="0px" y="0px"
	 viewBox="0 0 20 20" style="enable-background:new 0 0 20 20;" xml:space="preserve">
<g id="ico-tiktok" class="st0">
	<g id="XMLID_76_" class="st1">
		<path id="XMLID_77_" d="M18.3,8.2c-0.2,0-0.3,0-0.5,0c-1.7,0-3.4-0.9-4.3-2.3v7.9c0,3.2-2.6,5.9-5.9,5.9c-3.2,0-5.9-2.6-5.9-5.9
			C1.8,10.6,4.4,8,7.6,8l0,0C7.7,8,7.9,8,8,8v2.9c-0.1,0-0.2,0-0.4,0c-1.7,0-3,1.3-3,3c0,1.7,1.3,3,3,3c1.7,0,3.1-1.3,3.1-3l0-13.5
			h2.8c0.3,2.5,2.3,4.4,4.7,4.6L18.3,8.2"/>
	</g>
</g>
</svg>
