<svg version="1.1" xmlns="http://www.w3.org/2000/svg" xmlns:xlink="http://www.w3.org/1999/xlink" x="0px" y="0px"
	 viewBox="0 0 20 20" style="enable-background:new 0 0 20 20;" xml:space="preserve">
<g id="ico-youtube-cicle" class="st0">
	<path class="st1" d="M10,0.5c-5.3,0-9.5,4.3-9.5,9.5s4.3,9.5,9.5,9.5c5.3,0,9.5-4.3,9.5-9.5S15.3,0.5,10,0.5z M14.8,10.4l-7.6,4.2
		c-0.1,0.1-0.2,0.1-0.3,0.1c-0.4,0-0.7-0.3-0.7-0.7V6c0-0.4,0.3-0.7,0.7-0.7c0.1,0,0.2,0,0.3,0.1l7.6,4l0,0c0.2,0.1,0.3,0.3,0.3,0.5
		C15.1,10.1,15,10.3,14.8,10.4L14.8,10.4z"/>
</g>
</svg>
