<svg version="1.1" xmlns="http://www.w3.org/2000/svg" xmlns:xlink="http://www.w3.org/1999/xlink" x="0px" y="0px"
	 viewBox="0 0 20 20" style="enable-background:new 0 0 20 20;" xml:space="preserve">
<g id="ico-twitter" class="st0">
	<g class="st1">
		<path d="M17.7,6.2c0,0.2,0,0.3,0,0.5c0,0.8-0.1,1.6-0.3,2.3c-1,4.4-4.8,8.7-11,8.7c-2.2,0-4.3-0.6-6-1.7C0.7,16,1,16,1.3,16
			c1.9,0,3.6-0.6,4.9-1.7c-1.7,0-3.2-1.2-3.7-2.7c0.2,0,0.5,0.1,0.7,0.1c0.4,0,0.7,0,1-0.1C3,11.3,1.9,10.4,1.4,9.2
			C1.3,8.8,1.2,8.3,1.2,7.8c0,0,0,0,0,0C1.7,8,2.3,8.2,3,8.2C1.9,7.5,1.2,6.3,1.2,5c0-0.7,0.2-1.4,0.5-2c1.9,2.3,4.9,3.9,8.1,4.1
			C9.8,6.8,9.8,6.5,9.8,6.2c0-2.1,1.8-3.9,3.9-3.9c1.1,0,2.2,0.5,2.9,1.2c0.9-0.2,1.7-0.5,2.5-0.9c-0.3,0.9-0.9,1.7-1.7,2.2
			c0.8-0.1,1.6-0.3,2.3-0.6C19.1,4.9,18.4,5.6,17.7,6.2z"/>
	</g>
</g>
</svg>
