<svg version="1.1" xmlns="http://www.w3.org/2000/svg" xmlns:xlink="http://www.w3.org/1999/xlink" x="0px" y="0px"
	 viewBox="0 0 20 20" style="enable-background:new 0 0 20 20;" xml:space="preserve">
<g id="ico-instagram" class="st0">
	<g class="st1">
		<g id="XMLID_2_">
			<g id="XMLID_49_">
				<g id="XMLID_50_">
					<path id="XMLID_65_" d="M15.1,3.8C14.5,3.8,14,4.3,14,5c0,0.6,0.5,1.1,1.1,1.1c0.6,0,1.1-0.5,1.1-1.1
						C16.3,4.3,15.7,3.8,15.1,3.8z"/>
					<path id="XMLID_62_" d="M10.1,5.3c-2.6,0-4.7,2.1-4.7,4.7c0,2.6,2.1,4.7,4.7,4.7c2.6,0,4.7-2.1,4.7-4.7
						C14.8,7.4,12.7,5.3,10.1,5.3z M10.1,13.1c-1.7,0-3-1.4-3-3c0-1.7,1.4-3,3-3c1.7,0,3,1.4,3,3C13.1,11.7,11.8,13.1,10.1,13.1z"/>
					<path id="XMLID_59_" d="M13.9,19.7H6.2c-3.2,0-5.8-2.6-5.8-5.8V6.2C0.4,3,3,0.4,6.2,0.4h7.7c3.2,0,5.8,2.6,5.8,5.8v7.7
						C19.7,17.1,17.1,19.7,13.9,19.7z M6.2,2.2c-2.2,0-4,1.8-4,4v7.7c0,2.2,1.8,4,4,4h7.7c2.2,0,4-1.8,4-4V6.2c0-2.2-1.8-4-4-4H6.2z
						"/>
				</g>
			</g>
		</g>
	</g>
</g>
</svg>
