<svg version="1.1" xmlns="http://www.w3.org/2000/svg" xmlns:xlink="http://www.w3.org/1999/xlink" x="0px" y="0px"
	 viewBox="0 0 20 20" style="enable-background:new 0 0 20 20;" xml:space="preserve">
<g id="ico-instagram-cicle" class="st0">
	<g class="st1">
		<path d="M12.2,5.5H7.8c-1.3,0-2.3,1-2.3,2.3v4.5c0,1.3,1,2.3,2.3,2.3h4.5c1.3,0,2.3-1,2.3-2.3V7.8C14.5,6.5,13.5,5.5,12.2,5.5z
			 M10,12.7c-1.5,0-2.7-1.2-2.7-2.7c0-1.5,1.2-2.7,2.7-2.7c1.5,0,2.7,1.2,2.7,2.7C12.8,11.5,11.6,12.7,10,12.7z M13,7.7
			c-0.4,0-0.7-0.3-0.7-0.7c0-0.4,0.3-0.7,0.7-0.7c0.4,0,0.7,0.3,0.7,0.7C13.6,7.4,13.3,7.7,13,7.7z"/>
		<path d="M10,8.2c-1,0-1.8,0.8-1.8,1.8s0.8,1.8,1.8,1.8c1,0,1.8-0.8,1.8-1.8S11,8.2,10,8.2z"/>
		<path d="M10,0.5c-5.3,0-9.5,4.3-9.5,9.5s4.3,9.5,9.5,9.5c5.3,0,9.5-4.3,9.5-9.5S15.3,0.5,10,0.5z M15.6,12.2
			c0,1.8-1.5,3.3-3.3,3.3H7.8c-1.8,0-3.3-1.5-3.3-3.3V7.8c0-1.8,1.5-3.3,3.3-3.3h4.5c1.8,0,3.3,1.5,3.3,3.3V12.2z"/>
	</g>
</g>
</svg>
