<svg version="1.1" xmlns="http://www.w3.org/2000/svg" xmlns:xlink="http://www.w3.org/1999/xlink" x="0px" y="0px"
	 viewBox="0 0 20 20" style="enable-background:new 0 0 20 20;" xml:space="preserve">
<g id="ico-facebook-cicle" class="st0">
	<path class="st1" d="M10,0.5c-5.3,0-9.5,4.3-9.5,9.5s4.3,9.5,9.5,9.5c5.3,0,9.5-4.3,9.5-9.5S15.3,0.5,10,0.5z M12.4,10h-1.9
		c0,2.8,0,6.3,0,6.3H8c0,0,0-3.4,0-6.3H6.8V9V7.5H8V6.3c0-1,0.5-2.6,2.6-2.6l1.9,0v2.2c0,0-1.2,0-1.4,0c-0.2,0-0.6,0.1-0.6,0.6v1h2
		L12.4,10z"/>
</g>
</svg>
