<svg  viewBox="0 0 20 19" xmlns="http://www.w3.org/2000/svg">
        <path  d="M17.9491 4C16.1491 1.6 13.7491 0.2 10.7491 0H9.74906C6.64906 0.2 4.24906 1.6 2.44906 4C0.749062 6.4 0.249062 9.6 1.14906 12.4C2.54906 16.5 6.34906 19.2 10.6491 18.9C15.4491 18.7 19.1491 14.9 19.5491 10.2V8.8C19.5491 7 18.9491 5.3 17.9491 4ZM7.04906 11.8C5.64906 11.8 4.54906 10.7 4.54906 9.3C4.54906 7.9 5.64906 6.8 7.04906 6.8C8.44906 6.8 9.44906 8 9.44906 9.4C9.44906 10.7 8.34906 11.8 7.04906 11.8ZM13.4491 11.8C12.0491 11.8 10.9491 10.7 10.9491 9.3C10.9491 7.9 12.0491 6.8 13.4491 6.8C14.8491 6.8 15.9491 7.9 15.9491 9.3C15.8491 10.7 14.7491 11.8 13.4491 11.8Z" />
</svg>
