 <svg version="1.1" xmlns="http://www.w3.org/2000/svg" xmlns:xlink="http://www.w3.org/1999/xlink" x="0px" y="0px"
             viewBox="0 0 512 512" style="enable-background:new 0 0 512 512;" xml:space="preserve" fill="currentColor">

        <g>
            <g>
                <path  d="M315.8,135.4H197.1c-33.8,0-61.3,27.5-61.3,61.3v118.7c0,33.8,27.5,61.3,61.3,61.3h118.7
                    c33.8,0,61.3-27.5,61.3-61.3V196.8C377.1,163,349.6,135.4,315.8,135.4z M257.7,329.3c-40.4,0-73.2-32.8-73.2-73.2
                    c0-40.4,32.8-73.2,73.2-73.2c40.4,0,73.2,32.8,73.2,73.2C330.9,296.5,298,329.3,257.7,329.3z M335.2,195.4
                    c-9.6,0-17.4-7.8-17.4-17.4c0-9.6,7.8-17.4,17.4-17.4c9.6,0,17.4,7.8,17.4,17.4C352.6,187.6,344.8,195.4,335.2,195.4z"/>
                <path  d="M257.7,209.2c-25.9,0-46.9,21-46.9,46.9c0,25.9,21,46.9,46.9,46.9c25.9,0,46.9-21,46.9-46.9
                    C304.6,230.3,283.5,209.2,257.7,209.2z"/>
                <path  d="M256.4,2.7C116.5,2.7,3,116.1,3,256.1c0,140,113.5,253.4,253.4,253.4c140,0,253.4-113.5,253.4-253.4
                    C509.9,116.1,396.4,2.7,256.4,2.7z M405.1,315.5c0,49.2-40.1,89.3-89.3,89.3H197.1c-49.2,0-89.3-40.1-89.3-89.3V196.8
                    c0-49.2,40.1-89.3,89.3-89.3h118.7c49.2,0,89.3,40.1,89.3,89.3V315.5z"/>
            </g>
        </g>
        </svg>
