<svg viewBox="0 0 16 19"  xmlns="http://www.w3.org/2000/svg">
    <path  d="M6.49573 12.5823C6.09573 15.0823 5.49573 16.9823 3.99573 18.8823C3.89573 18.9823 3.79573 18.9823 3.69573 18.8823L3.59573 18.7823C3.39573 17.1823 3.39573 15.6823 3.79573 14.2823C4.09573 12.7823 4.49573 11.2823 4.89573 9.78228C4.99573 9.38228 5.09573 8.98228 4.99573 8.48228C4.59573 7.18228 4.59573 5.88228 5.49573 4.88228C6.39573 3.88228 7.99573 3.98228 8.19573 5.48228C8.29573 5.88228 8.29573 6.38228 8.09573 6.98228C7.89573 7.78228 7.59573 8.68228 7.39573 9.58228C6.89573 11.1823 8.39573 12.2823 9.79573 11.7823C11.8957 11.0823 12.5957 8.08228 12.5957 6.18228C12.4957 2.68228 9.79573 1.38228 6.69573 1.98228C4.69573 2.38228 3.29573 3.78228 2.69573 5.78228C2.49573 6.88228 2.49573 8.08228 3.19573 8.98228C3.59573 9.48228 3.59573 10.0823 3.19573 10.8823C3.09573 10.9823 2.89573 11.0823 2.79573 10.9823C1.49573 10.3823 0.795728 9.28228 0.595728 7.68228C-0.00427246 2.38228 5.29573 -0.817717 9.99573 0.182283C12.9957 0.882283 15.2957 3.18228 15.2957 6.38228C15.2957 9.88228 13.3957 13.6823 9.39573 13.6823C8.29573 13.6823 7.59573 13.2823 6.79573 12.4823C6.59573 12.4823 6.59573 12.4823 6.49573 12.5823Z"/>
</svg>
