<svg  viewBox="0 0 19 19" xmlns="http://www.w3.org/2000/svg">
    <path d="M19 9.5C19 14.7 14.7 19 9.5 19C4.3 19 0 14.7 0 9.5C0 4.3 4.3 0 9.5 0C14.7 0 19 4.3 19 9.5ZM15.5 6.6C12.5 5.1 8.9 4.8 5.5 5.2C4.8 5.3 4.1 5.4 3.5 5.6C2.5 6 2.9 7.6 4 7.3C6.6 6.6 9.2 6.6 12 7.2C13 7.4 14 7.8 14.9 8.3C15.4 8.6 15.9 8.6 16.2 8.1C16.8 7.4 16.1 6.9 15.5 6.6ZM13.4 9.4C10.5 8.2 7.4 8 4.3 8.8C3.8 8.9 3.5 9.2 3.6 9.7C3.8 10.2 4.1 10.3 4.5 10.2C7.9 9.3 11.1 9.7 14.1 11.3C14.5 11.5 14.8 11.4 15 11.1C15.2 10.7 15.1 10.4 14.8 10.1C14.3 9.8 13.9 9.6 13.4 9.4ZM13 13.9C13.5 14.2 13.9 13.9 13.9 13.4C13.9 13.2 13.8 13.1 13.7 13C11 11.3 7.6 11.1 4.4 11.9C4.1 11.9 4 12.1 4 12.5C4 12.6 4 12.7 4.1 12.8C4.2 12.9 4.4 13 4.5 13C5 12.9 5.5 12.8 6 12.7C8.5 12.3 10.8 12.6 13 13.9Z" />
 </svg>
