<svg version="1.1" xmlns="http://www.w3.org/2000/svg" xmlns:xlink="http://www.w3.org/1999/xlink" x="0px" y="0px"
	 viewBox="0 0 20 20" style="enable-background:new 0 0 20 20;" xml:space="preserve">
<g id="ico-tiktok-cicle" class="st0">
	<path class="st1" d="M10,0.5c-5.3,0-9.5,4.3-9.5,9.5s4.3,9.5,9.5,9.5c5.3,0,9.5-4.3,9.5-9.5S15.3,0.5,10,0.5z M15.1,8.9L15.1,8.9
		c-0.1,0-0.2,0-0.3,0c-1.1,0-2.1-0.5-2.7-1.4v4.9c0,2-1.6,3.6-3.6,3.6s-3.6-1.6-3.6-3.6s1.6-3.6,3.6-3.6c0.1,0,0.2,0,0.2,0v1.8
		c-0.1,0-0.1,0-0.2,0c-1,0-1.9,0.8-1.9,1.9c0,1,0.8,1.9,1.9,1.9c1,0,1.9-0.8,1.9-1.8l0-8.4h1.7c0.2,1.5,1.4,2.7,3,2.9V8.9z"/>
</g>
</svg>
