<svg version="1.1" xmlns="http://www.w3.org/2000/svg" xmlns:xlink="http://www.w3.org/1999/xlink" x="0px" y="0px"
	 viewBox="0 0 20 20" style="enable-background:new 0 0 20 20;" xml:space="preserve">
<g id="ico-twitter-cicle" class="st0">
	<path class="st1" d="M10,0.5c-5.3,0-9.5,4.3-9.5,9.5s4.3,9.5,9.5,9.5c5.3,0,9.5-4.3,9.5-9.5S15.3,0.5,10,0.5z M14.6,7.7
		c0,0.1,0,0.2,0,0.3c0,0.5-0.1,0.9-0.2,1.4c-0.6,2.7-2.9,5.2-6.6,5.2c-1.3,0-2.6-0.4-3.6-1c0.2,0,0.4,0,0.6,0c1.1,0,2.1-0.4,2.9-1
		c-1,0-1.9-0.7-2.2-1.6c0.1,0,0.3,0,0.4,0c0.2,0,0.4,0,0.6-0.1c-0.8-0.2-1.4-0.7-1.7-1.4C4.8,9.2,4.7,9,4.7,8.7c0,0,0,0,0,0
		c0.3,0.2,0.7,0.3,1.1,0.3C5.2,8.5,4.8,7.8,4.8,7c0-0.4,0.1-0.8,0.3-1.2C6.3,7.2,8,8.1,10,8.2c0-0.2-0.1-0.3-0.1-0.5
		c0-1.3,1.1-2.3,2.4-2.3c0.7,0,1.3,0.3,1.7,0.7c0.5-0.1,1-0.3,1.5-0.6c-0.2,0.5-0.6,1-1,1.3c0.5-0.1,0.9-0.2,1.4-0.4
		C15.5,6.9,15.1,7.4,14.6,7.7z"/>
</g>
</svg>
