<svg width="24" height="16" viewBox="0 0 24 16" fill="none" xmlns="http://www.w3.org/2000/svg">
<g id="Frame" clip-path="url(#clip0_497_6168)">
<path id="Vector" d="M1.7806 4.85911C1.68304 4.98835 1.68304 5.16928 1.75621 5.29853C2.82938 7.34053 4.04889 9.0982 6.39036 9.40838C8.0245 9.64101 9.36597 8.58124 10.0489 7.08205C10.7074 5.68625 11.683 2.79126 11.1952 1.55054C10.4391 -0.439762 13.3172 -0.517307 12.9757 1.21452C12.9026 1.60224 12.6586 1.86072 12.7074 2.35184C12.9757 4.98835 14.1952 9.95119 17.683 9.43423C19.9513 9.0982 21.3416 7.26298 22.3172 5.24683C22.366 5.11759 22.366 4.98835 22.2928 4.88495C21.8294 4.2129 22.1465 3.04974 23.0001 3.10143C24.2928 3.17898 24.3172 4.65232 23.2928 5.24683C23.1952 5.29852 23.0977 5.40192 23.0733 5.53116L20.5123 13.4924C20.4635 13.6475 20.366 13.725 20.2196 13.7509C14.7074 14.242 9.21962 14.242 3.70743 13.7509C3.63426 13.7509 3.58548 13.6992 3.56109 13.6216C2.73182 10.9593 1.87816 8.32276 1.0245 5.68625C0.7806 4.9108 -0.0486686 5.09174 0.000111904 4.13536C0.0976729 2.19675 2.95133 3.30822 1.7806 4.85911ZM12.3904 1.00773C12.3904 0.7751 12.2196 0.594163 12.0001 0.594163C11.7806 0.594163 11.6099 0.7751 11.6099 1.00773C11.6099 1.24037 11.7806 1.4213 12.0001 1.4213C12.2196 1.4213 12.3904 1.24037 12.3904 1.00773ZM23.4147 4.08366C23.4147 3.85103 23.244 3.67009 23.0245 3.67009C22.805 3.67009 22.6343 3.85103 22.6343 4.08366C22.6343 4.3163 22.805 4.49723 23.0245 4.49723C23.244 4.49723 23.4147 4.3163 23.4147 4.08366ZM1.2684 4.2129C1.31719 4.03197 1.19523 3.85103 0.975722 3.77348C0.7806 3.72179 0.561088 3.82518 0.512307 3.98027C0.463527 4.16121 0.585478 4.34214 0.80499 4.41969C1.00011 4.47138 1.21962 4.36799 1.2684 4.2129Z" fill="#D9D9D9"/>
<path id="Vector_2" d="M17.0486 3.72192L16.7803 3.43759C16.7315 3.38589 16.6827 3.30834 16.6583 3.20495C16.1705 0.59429 20.2681 2.09348 17.951 3.877C17.8778 3.9287 17.8534 4.00625 17.8534 4.08379C17.8047 5.55713 18.2681 7.23726 19.6827 7.70253C19.7803 7.72838 19.8047 7.83177 19.7803 7.90932C19.7803 7.93516 19.7559 7.98686 19.7315 7.98686C17.8778 9.40851 15.3169 8.99494 14.4144 6.61691C14.39 6.53936 14.4144 6.48767 14.4876 6.48767C15.8534 6.38427 16.6583 5.2728 17.0973 4.00625C17.1217 3.90285 17.1217 3.79946 17.0486 3.72192ZM18.0242 2.86893C18.0486 2.66214 17.8778 2.4812 17.6583 2.45536C17.4144 2.42951 17.2193 2.55875 17.1949 2.73969C17.1705 2.94647 17.3412 3.12741 17.5608 3.15326C17.7803 3.20495 17.9998 3.07571 18.0242 2.86893Z" fill="#A8A8A8"/>
<path id="Vector_3" d="M6.90262 4.03218C7.29286 5.1695 8.24408 6.43606 9.46359 6.48775C9.6831 6.48775 9.73189 6.59114 9.60993 6.79793C8.24408 9.07257 6.46359 9.48614 4.24408 8.03864C4.17091 7.98694 4.14652 7.88355 4.1953 7.80601C4.21969 7.78016 4.24408 7.75431 4.29286 7.72846C5.75628 7.23735 6.29286 5.60891 6.17091 4.00633C6.17091 3.92878 6.12213 3.87709 6.04896 3.82539C5.58554 3.59276 5.36603 3.23089 5.39042 2.79147C5.53676 0.9304 8.58554 1.96433 6.9514 3.79954C6.87823 3.85124 6.87823 3.92879 6.90262 4.03218ZM6.78067 2.73977C6.75628 2.53299 6.53676 2.40374 6.31725 2.42959C6.07335 2.45544 5.92701 2.66223 5.9514 2.86901C5.97579 3.0758 6.1953 3.20504 6.41481 3.17919C6.63432 3.12749 6.80506 2.94656 6.78067 2.73977Z" fill="#A8A8A8"/>
<path id="Vector_4" d="M19.9513 15.2758C19.8781 15.4567 19.7806 15.5343 19.6098 15.5601C14.5367 16.1546 9.46348 16.1546 4.39031 15.5601C4.19519 15.5343 4.07324 15.4309 4.02446 15.2241L3.87812 14.6813C3.82934 14.5003 3.90251 14.3969 4.07324 14.3969C9.87812 14.733 14.4391 14.8622 20.0489 14.3711C20.1464 14.3711 20.2196 14.4228 20.2196 14.5262C20.2196 14.552 20.2196 14.5779 20.2196 14.6037L19.9513 15.2758Z" fill="#D9D9D9"/>
</g>
<defs>
<clipPath id="clip0_497_6168">
<rect width="24" height="16" fill="white"/>
</clipPath>
</defs>
</svg>
