<svg width="18" height="12" viewBox="0 0 18 12" fill="none" xmlns="http://www.w3.org/2000/svg">
<g id="Frame" clip-path="url(#clip0_497_6173)">
<path id="Vector" d="M1.33496 3.64482C1.26179 3.74175 1.26179 3.87745 1.31667 3.97438C2.12155 5.50588 3.03618 6.82414 4.79228 7.05677C6.01789 7.23125 7.02399 6.43642 7.53618 5.31202C8.03008 4.26517 8.76179 2.09393 8.39594 1.1634C7.82886 -0.329333 9.9874 -0.387492 9.7313 0.911377C9.67642 1.20217 9.4935 1.39603 9.53008 1.76437C9.7313 3.74175 10.6459 7.46388 13.2618 7.07616C14.963 6.82414 16.0057 5.44773 16.7374 3.93561C16.774 3.83868 16.774 3.74175 16.7191 3.6642C16.3715 3.16017 16.6094 2.28779 17.2496 2.32656C18.2191 2.38472 18.2374 3.48973 17.4691 3.93561C17.3959 3.97438 17.3228 4.05193 17.3045 4.14886L15.3837 10.1198C15.3472 10.2361 15.274 10.2943 15.1642 10.3136C11.0301 10.682 6.91423 10.682 2.78008 10.3136C2.72521 10.3136 2.68862 10.2749 2.67033 10.2167C2.04838 8.21994 1.40813 6.24256 0.767888 4.26517C0.584961 3.68359 -0.0369897 3.81929 -0.000404353 3.10201C0.0727664 1.64805 2.21301 2.48165 1.33496 3.64482ZM9.29228 0.756289C9.29228 0.581814 9.16423 0.446111 8.9996 0.446111C8.83496 0.446111 8.70691 0.581814 8.70691 0.756289C8.70691 0.930764 8.83496 1.06647 8.9996 1.06647C9.16423 1.06647 9.29228 0.930764 9.29228 0.756289ZM17.5606 3.06324C17.5606 2.88876 17.4325 2.75306 17.2679 2.75306C17.1033 2.75306 16.9752 2.88876 16.9752 3.06324C16.9752 3.23771 17.1033 3.37341 17.2679 3.37341C17.4325 3.37341 17.5606 3.23771 17.5606 3.06324ZM0.950815 3.16017C0.987401 3.02446 0.895937 2.88876 0.731303 2.8306C0.584962 2.79183 0.420327 2.86937 0.383742 2.98569C0.347157 3.12139 0.43862 3.2571 0.603254 3.31525C0.749596 3.35403 0.91423 3.27648 0.950815 3.16017Z" fill="#C6726D"/>
<path id="Vector_2" d="M12.7862 2.79192L12.585 2.57868C12.5484 2.53991 12.5118 2.48175 12.4935 2.4042C12.1276 0.446206 15.2008 1.5706 13.463 2.90824C13.4081 2.94701 13.3898 3.00517 13.3898 3.06333C13.3533 4.16834 13.7008 5.42844 14.7618 5.77739C14.835 5.79677 14.8533 5.87432 14.835 5.93247C14.835 5.95186 14.8167 5.99063 14.7984 5.99063C13.4081 7.05687 11.4874 6.74669 10.8106 4.96317C10.7923 4.90501 10.8106 4.86624 10.8654 4.86624C11.8898 4.78869 12.4935 3.95509 12.8228 3.00517C12.8411 2.92763 12.8411 2.85008 12.7862 2.79192ZM13.5179 2.15218C13.5362 1.99709 13.4081 1.86139 13.2435 1.84201C13.0606 1.82262 12.9142 1.91955 12.8959 2.05525C12.8776 2.21034 13.0057 2.34604 13.1703 2.36543C13.335 2.4042 13.4996 2.30727 13.5179 2.15218Z" fill="#BB635D"/>
<path id="Vector_3" d="M5.17647 3.02413C5.46916 3.87712 6.18257 4.82704 7.09721 4.86581C7.26184 4.86581 7.29843 4.94336 7.20696 5.09845C6.18257 6.80442 4.84721 7.1146 3.18257 6.02898C3.12769 5.99021 3.1094 5.91266 3.14599 5.8545C3.16428 5.83512 3.18257 5.81573 3.21916 5.79635C4.31672 5.42801 4.71916 4.20669 4.62769 3.00475C4.62769 2.94659 4.59111 2.90782 4.53623 2.86904C4.18867 2.69457 4.02404 2.42316 4.04233 2.0936C4.15208 0.6978 6.43867 1.47324 5.21306 2.84966C5.15818 2.88843 5.15818 2.94659 5.17647 3.02413ZM5.08501 2.05483C5.06672 1.89974 4.90208 1.80281 4.73745 1.82219C4.55452 1.84158 4.44477 1.99667 4.46306 2.15176C4.48135 2.30685 4.64599 2.40378 4.81062 2.38439C4.97526 2.34562 5.1033 2.20992 5.08501 2.05483Z" fill="#BB635D"/>
<path id="Vector_4" d="M14.9635 11.4568C14.9086 11.5925 14.8354 11.6507 14.7074 11.6701C10.9025 12.116 7.09761 12.116 3.29273 11.6701C3.14639 11.6507 3.05493 11.5732 3.01834 11.4181L2.90859 11.011C2.872 10.8753 2.92688 10.7977 3.05493 10.7977C7.40859 11.0497 10.8293 11.1467 15.0366 10.7783C15.1098 10.7783 15.1647 10.8171 15.1647 10.8946C15.1647 10.914 15.1647 10.9334 15.1647 10.9528L14.9635 11.4568Z" fill="#BB635D"/>
</g>
<defs>
<clipPath id="clip0_497_6173">
<rect width="18" height="12" fill="white"/>
</clipPath>
</defs>
</svg>
