<svg viewBox="0 0 156 112" fill="none" xmlns="http://www.w3.org/2000/svg">
<path d="M73.8568 103.045C73.7312 103.139 73.5743 103.201 73.4487 103.264C73.6998 103.232 73.9196 103.201 74.1707 103.17C74.0451 103.139 73.9509 103.076 73.8568 103.045Z" fill="#900D0D"/>
<path d="M88.0443 76.3282L87.0085 109.089H0V107.461C3.10744 107.304 5.58712 106.866 7.43903 106.177C9.29095 105.488 10.9859 104.36 12.4926 102.825C14.1561 101.134 15.2861 98.9416 15.8825 96.3107C16.5103 93.6797 16.7928 89.6394 16.7928 84.1896V25.307C16.7928 19.4501 16.4161 15.1591 15.7256 12.4342C15.0036 9.70936 13.5911 7.4856 11.5195 5.73165C8.91429 3.57054 5.08491 2.34904 0 2.06715V0.219238H42.594V1.84791C40.2398 1.97319 38.2624 2.25507 36.5988 2.69356H34.3702V82.0911C34.3702 86.4447 34.5899 89.9213 34.998 92.5522C35.0922 93.0846 35.1549 93.5545 35.2805 93.9929C35.8769 96.7178 36.9441 99.0356 38.5763 100.946C40.8676 103.734 44.0692 105.55 48.2753 106.49C49.3111 106.552 50.4097 106.584 51.571 106.584C57.9115 106.584 63.2789 105.738 67.6105 104.078C71.9734 102.387 75.5203 99.8186 78.2825 96.2793C80.1658 93.8677 81.6724 91.1741 82.8966 88.136C84.0893 85.0979 85.2193 81.1202 86.2237 76.1402L88.0443 76.3282Z" fill="#900D0D"/>
<path d="M65.9155 109.089C63.6869 109.215 61.427 109.277 59.167 109.277H0V109.089H65.9155Z" fill="#900D0D"/>
<path d="M115.038 58.7887C115.038 66.149 113.845 73.0708 111.491 79.5855C110.895 81.2142 110.267 82.7489 109.577 84.2209C107.442 88.7311 104.806 92.5835 101.604 95.8409C99.7835 97.7201 97.806 99.3801 95.6716 100.852V59.1332C95.6716 58.7887 95.6716 58.4128 95.6716 58.0683C95.6716 50.52 94.5102 43.3163 92.2189 36.4884C89.9275 29.6605 86.6318 23.7096 82.363 18.6044C80.511 16.3806 78.5336 14.4074 76.462 12.6535C74.7042 11.1814 72.8837 9.86596 70.969 8.73843C67.8929 6.92183 64.6286 5.51241 61.1444 4.54147C56.6559 3.31997 50.9432 2.69356 44.0064 2.69356H36.5674C38.231 2.25507 40.2398 1.97319 42.5626 1.84791V0.219238H44.0064C53.7682 0.219238 59.9831 0.3132 62.6511 0.532444C68.9601 1.00225 74.7042 2.22375 79.9461 4.16563C81.4841 4.7294 82.9593 5.35581 84.3718 6.04486C86.8201 7.20372 89.1114 8.58182 91.2772 10.1165C98.7477 15.3784 104.555 22.3002 108.729 30.8507C112.967 39.4326 115.038 48.7348 115.038 58.7887Z" fill="#900D0D"/>
<path d="M73.8568 103.045C73.7312 103.139 73.5743 103.201 73.4487 103.264C73.6998 103.232 73.9196 103.201 74.1707 103.17C74.0451 103.139 73.9509 103.076 73.8568 103.045Z" fill="#900D0D"/>
<path d="M72.1931 90.5164C69.682 92.8341 66.9512 94.9326 64.0635 96.7492C61.5838 94.776 59.2611 92.5522 57.1267 90.1092C52.9206 85.3798 49.6562 80.024 47.3963 74.0105C45.1363 67.9969 44.0063 61.7328 44.0063 55.2495C44.0063 46.7303 45.8269 38.8375 49.4993 31.5398C52.3243 25.9335 56.1222 20.8908 60.9247 16.3494C63.9379 18.5105 66.7315 20.9535 69.2426 23.6784C67.8929 26.4972 66.7001 29.5666 65.7271 32.8553C63.5299 40.153 62.4313 48.0144 62.4313 56.377C62.4313 69.6569 65.6957 81.0263 72.1931 90.5164Z" fill="#900D0D"/>
<path d="M156 54.2785C156 60.7619 154.839 67.026 152.484 73.0708C150.162 79.1157 146.74 84.6281 142.283 89.5768C136.79 95.7782 130.324 100.57 122.822 103.953C115.321 107.335 107.505 109.058 99.3126 109.058C98.0884 109.058 96.8643 109.027 95.6715 108.933V106.302C97.0526 106.459 98.4651 106.552 99.9403 106.552C105.276 106.552 109.953 105.55 114.002 103.514C118.051 101.479 121.881 98.1899 125.553 93.6171C133.589 83.4692 137.606 70.9724 137.606 56.0951C137.606 47.9204 136.508 40.2156 134.279 32.9179C132.051 25.6515 128.943 19.4501 124.957 14.3761C121.692 10.2105 118.083 7.1724 114.096 5.29317C110.11 3.38262 105.402 2.443 99.9717 2.443C98.8104 2.443 97.649 2.47432 96.5504 2.56828C95.389 1.84791 94.2277 1.19018 93.0349 0.56377C95.5774 0.187923 98.1512 0 100.725 0C108.541 0 116.105 1.72263 123.45 5.13657C130.764 8.55051 137.167 13.4052 142.66 19.638C151.543 29.8172 156 41.3431 156 54.2785Z" fill="#900D0D"/>
<path d="M72.1931 90.5164C69.682 92.8341 66.9512 94.9326 64.0635 96.7492C61.5838 94.776 59.2611 92.5522 57.1267 90.1092C52.9206 85.3798 49.6562 80.024 47.3963 74.0105C45.1363 67.9969 44.0063 61.7328 44.0063 55.2495C44.0063 46.7303 45.8269 38.8375 49.4993 31.5398C52.3243 25.9335 56.1222 20.8908 60.9247 16.3494C63.9379 18.5105 66.7315 20.9535 69.2426 23.6784C67.8929 26.4972 66.7001 29.5666 65.7271 32.8553C63.5299 40.153 62.4313 48.0144 62.4313 56.377C62.4313 69.6569 65.6957 81.0263 72.1931 90.5164Z" fill="#900D0D"/>
<path d="M142.221 111.031C144.405 111.031 146.175 109.264 146.175 107.085C146.175 104.905 144.405 103.139 142.221 103.139C140.036 103.139 138.266 104.905 138.266 107.085C138.266 109.264 140.036 111.031 142.221 111.031Z" fill="#900D0D"/>
</svg>
