<svg version="1.1" xmlns="http://www.w3.org/2000/svg" xmlns:xlink="http://www.w3.org/1999/xlink" x="0px" y="0px"
	 viewBox="0 0 20 20" style="enable-background:new 0 0 20 20;" xml:space="preserve">
<g id="ico-discord-cicle" class="st0">
	<g class="st1">
		<path d="M12.2,9C11.6,9,11,9.5,11,10.2s0.5,1.3,1.2,1.3c0.6,0,1.2-0.6,1.2-1.3S12.8,9,12.2,9z"/>
		<path d="M7.8,9c-0.6,0-1.2,0.6-1.2,1.3s0.5,1.3,1.2,1.3C8.4,11.5,9,11,9,10.2S8.4,9,7.8,9z"/>
		<path d="M10,0.5c-5.3,0-9.5,4.3-9.5,9.5s4.3,9.5,9.5,9.5c5.3,0,9.5-4.3,9.5-9.5S15.3,0.5,10,0.5z M16.6,12.9c0,0.1,0,0.1-0.1,0.2
			c-1,0.7-2,1.2-3.1,1.6c-0.1,0-0.2,0-0.2-0.1c-0.2-0.3-0.4-0.7-0.6-1c0.4-0.2,0.8-0.3,1.1-0.5l-0.3-0.2c-0.7,0.4-1.9,0.7-3.3,0.7
			s-2.6-0.3-3.3-0.7L6.4,13c0.3,0.2,0.7,0.4,1.1,0.5c-0.2,0.3-0.4,0.7-0.6,1c0,0.1-0.1,0.1-0.2,0.1c-1.1-0.3-2.2-0.9-3.1-1.6
			C3.5,13,3.5,13,3.4,12.9C3.2,10,4,7.7,5.4,5.7c0,0,0.1-0.1,0.1-0.1C6.4,5.2,7.2,5,8.1,4.8c0.1,0,0.1,0,0.1,0
			c0.1,0.2,0.2,0.4,0.3,0.7C9,5.4,9.5,5.4,10,5.4s1,0,1.5,0.1c0.1-0.2,0.2-0.4,0.3-0.7c0,0,0-0.1,0.1,0c0.9,0.2,1.7,0.4,2.6,0.8
			c0,0,0.1,0.1,0.1,0.1C16,7.7,16.8,10,16.6,12.9z"/>
	</g>
</g>
</svg>
