<svg version="1.1" xmlns="http://www.w3.org/2000/svg" fill="currentColor" xmlns:xlink="http://www.w3.org/1999/xlink" x="0px" y="0px"
        viewBox="0 0 512 512" style="enable-background:new 0 0 512 512;" xml:space="preserve">

<g >
    <path  d="M256.4,2.7C116.5,2.7,3,116.1,3,256.1c0,140,113.5,253.4,253.4,253.4c140,0,253.4-113.5,253.4-253.4
        C509.9,116.1,396.4,2.7,256.4,2.7z M321.1,256.1h-49.8c0,75,0,167.5,0,167.5h-67c0,0,0-91.6,0-167.5h-33.5v-26.5v-40.5h33.2v-30.3
        c0-27.4,13.1-70.2,70.5-70.2l51.8,0.2v57.4c0,0-31.5,0-37.6,0c-6.1,0-14.8,3-14.8,16.1v26.8h53.2L321.1,256.1z"/>
</g>
</svg>
